<?xml version="1.0" encoding="utf-8"?>
<!-- Generator: Adobe Illustrator 19.0.0, SVG Export Plug-In . SVG Version: 6.00 Build 0)  -->
<svg version="1.1" id="Layer_1" xmlns="http://www.w3.org/2000/svg" xmlns:xlink="http://www.w3.org/1999/xlink" x="0px" y="0px"
	 viewBox="0 0 100 65.4" style="enable-background:new 0 0 100 65.4;" xml:space="preserve">
<style type="text/css">
	.st0{fill:#DD2741;}
	.st1{fill:url(#XMLID_29_);}
</style>
<g id="XMLID_13_">
	<path id="XMLID_18_" class="st0" d="M9.5,62.1c-3.3,0-6-2.7-6-6.1c0-3.3,2.6-6.1,6-6.1c3.3,0,6,2.7,6,6.1
		C15.5,59.4,12.8,62.1,9.5,62.1L9.5,62.1z M15.5,62.9c0,0.5,0.9,2.1,2.1,2.1h0.7c0.3,0,0.5-0.2,0.5-0.5V47.9l0,0
		c0-0.3-0.2-0.5-0.5-0.5h-2.3c-0.3,0-0.5,0.2-0.5,0.5l0,0v1.4c-1.4-1.8-3.7-2.5-6-2.5c-5.2,0-9.3,4.2-9.3,9.3c0,5.2,4.2,9.3,9.3,9.3
		C11.8,65.4,14.3,64.5,15.5,62.9L15.5,62.9z M24.5,60.5c1.6,1.1,3.3,1.6,4.9,1.6c1.6,0,3.2-0.8,3.2-2.2c0-1.9-3.5-2.2-5.7-2.9
		c-2.2-0.7-4.1-2.3-4.1-4.8c0-3.9,3.4-5.4,6.7-5.4c2,0,4.1,0.7,5.5,1.6c0.5,0.4,0.2,0.8,0.2,0.8L33.8,51c-0.2,0.2-0.5,0.4-0.8,0.2
		c-0.9-0.6-1.8-1.1-3.6-1.1c-2.2,0-3.2,0.9-3.2,2c0,1.3,1.5,1.8,3.3,2.2c3.1,0.9,6.5,1.9,6.5,5.7c0,3.4-3.2,5.5-6.7,5.5
		c-2.6,0-4.9-0.7-6.8-2.1c-0.4-0.4-0.1-0.8-0.1-0.8l1.3-1.8C24,60.3,24.4,60.4,24.5,60.5z M53.7,62.9c0,0.5,0.9,2.1,2.1,2.1h0.7
		c0.3,0,0.5-0.2,0.5-0.5V47.9l0,0c0-0.3-0.2-0.5-0.5-0.5h-2.3c-0.3,0-0.5,0.2-0.5,0.5l0,0v1.4c-1.4-1.8-3.7-2.5-6-2.5
		c-5.2,0-9.3,4.2-9.3,9.3c0,5.2,4.2,9.3,9.3,9.3C50,65.4,52.5,64.5,53.7,62.9L53.7,62.9z M47.7,62.1c-3.3,0-6-2.7-6-6.1
		c0-3.3,2.6-6.1,6-6.1c3.3,0,6,2.7,6,6.1C53.7,59.4,51,62.1,47.7,62.1z M78.1,63.5v-8.6l0,0c0-4.9-3.1-8.1-7.9-8.1
		c-2.3,0-4.2,1.4-4.9,2.5l0,0l0,0c0-1.2-0.9-1.9-2.1-1.9h-0.7c-0.3,0-0.5,0.2-0.5,0.5v15l0,0v1.6l0,0c0,0.3,0.2,0.5,0.5,0.5h2.3
		c0,0,0.1,0,0.1,0h0h0c0,0,0,0,0.1,0h0c0,0,0,0,0.1,0l0,0c0,0,0,0,0.1-0.1l0,0c0.1-0.1,0.1-0.2,0.1-0.3l0,0v-9.8
		c0-2.6,2.1-4.7,4.7-4.7c2.6,0,4.7,2.1,4.7,4.7V63l0,0c0,0,0,0,0,0v1.6l0,0c0,0.3,0.2,0.5,0.5,0.5h2.3c0,0,0.1,0,0.1,0h0
		c0,0,0,0,0,0s0,0,0,0h0c0,0,0,0,0.1,0l0,0c0,0,0,0,0.1-0.1l0,0c0-0.1,0.1-0.2,0.1-0.3l0,0l0,0L78.1,63.5L78.1,63.5z M96.4,62.9
		c0,0.5,0.9,2.1,2.1,2.1h0.7c0.3,0,0.5-0.2,0.5-0.5V47.9l0,0c0-0.3-0.2-0.5-0.5-0.5h-2.3c-0.3,0-0.5,0.2-0.5,0.5l0,0v1.4
		c-1.4-1.8-3.7-2.5-6-2.5c-5.2,0-9.3,4.2-9.3,9.3c0,5.2,4.2,9.3,9.3,9.3C92.7,65.4,95.2,64.5,96.4,62.9L96.4,62.9z M90.4,62.1
		c-3.3,0-6-2.7-6-6.1c0-3.3,2.6-6.1,6-6.1c3.3,0,6,2.7,6,6.1C96.4,59.4,93.7,62.1,90.4,62.1z"/>
	
		<radialGradient id="XMLID_29_" cx="155.0693" cy="0.1903" r="0.2579" gradientTransform="matrix(96.78 0 0 89.4543 -14957.4668 1.9985)" gradientUnits="userSpaceOnUse">
		<stop  offset="0" style="stop-color:#F49AB2"/>
		<stop  offset="0.6" style="stop-color:#EF3360"/>
		<stop  offset="0.9991" style="stop-color:#DD2741"/>
	</radialGradient>
	<path id="XMLID_14_" class="st1" d="M60.8,18.4c-4.5,0-8.2,3.7-8.2,8.2s3.7,8.2,8.2,8.2s8.2-3.7,8.2-8.2
		C69,22.1,65.3,18.4,60.8,18.4L60.8,18.4z M39.5,18.4c-4.5,0-8.2,3.7-8.2,8.2s3.7,8.2,8.2,8.2s8.2-3.7,8.2-8.2
		C47.7,22.1,44,18.4,39.5,18.4L39.5,18.4z M58.3,8.2c0,4.5-3.7,8.2-8.2,8.2S42,12.7,42,8.2S45.6,0,50.2,0S58.3,3.7,58.3,8.2
		L58.3,8.2z"/>
</g>
</svg>
