<svg id="Layer_1" xmlns="http://www.w3.org/2000/svg" viewBox="0 0 266 291"><style>.st0{fill:#f5333f}</style><path class="st0" d="M133 97.9c-19.4 0-35.2 15.8-35.2 35.2 0 14 8.3 26.6 21.1 32.2l5.1 2.2v24.9h18v-24.9l5.1-2.2c12.8-5.6 21.1-18.3 21.1-32.2 0-19.4-15.8-35.2-35.2-35.2z"/><path class="st0" d="M226.1 138.2c-.8-50.6-42.3-91.5-93.1-91.5-51.3 0-93.1 41.8-93.1 93.1 0 26.9 11.4 52 31.4 69.7v81.6h110.8v-41.7H226v-46.7h24.1l-24-64.5zm-67 40.2v31.2H107v-31.2c-16.1-9.3-26.2-26.5-26.2-45.3 0-28.8 23.5-52.3 52.3-52.3s52.3 23.5 52.3 52.3c-.1 18.8-10.2 36-26.3 45.3zM124.5-.4h17.1v30h-17.1z"/><path transform="rotate(-67.505 180.918 24.08)" class="st0" d="M165.9 15.5h30v17.1h-30z"/><path transform="rotate(-22.5 85.082 24.08)" class="st0" d="M76.6 9.1h17.1v30H76.6z"/><path transform="rotate(-45.001 221.53 51.22)" class="st0" d="M206.5 42.7h30v17.1h-30z"/><path transform="rotate(-22.5 248.676 91.836)" class="st0" d="M233.7 83.3h30v17.1h-30z"/><path transform="rotate(-45.001 44.469 51.218)" class="st0" d="M35.9 36.2H53v30H35.9z"/><path transform="rotate(-67.5 17.332 91.832)" class="st0" d="M8.8 76.8h17.1v30H8.8z"/></svg>