<?xml version="1.0" encoding="utf-8"?>
<!-- Generator: Adobe Illustrator 19.0.0, SVG Export Plug-In . SVG Version: 6.00 Build 0)  -->
<svg version="1.1" id="Layer_1" xmlns="http://www.w3.org/2000/svg" xmlns:xlink="http://www.w3.org/1999/xlink" x="0px" y="0px"
	 viewBox="0 0 64.4 48" style="enable-background:new 0 0 64.4 48;" xml:space="preserve">
<style type="text/css">
	.st0{fill:#EE2648;}
</style>
<path id="XMLID_5_" class="st0" d="M39.8,0.6L37.6,0C37.3,0,37.1,0,36.8,0.1s-0.4,0.4-0.5,0.7l-13,45c-0.1,0.3-0.1,0.6,0.1,0.8
	c0.1,0.3,0.4,0.4,0.7,0.5l2.2,0.6c0.3,0.1,0.5,0.1,0.8-0.1c0.3-0.1,0.4-0.4,0.5-0.7L40.6,2c0.1-0.3,0.1-0.6-0.1-0.9
	C40.3,0.9,40.1,0.7,39.8,0.6z M20.3,9.4c0-0.3-0.1-0.6-0.4-0.8l-1.7-1.7c-0.2-0.2-0.5-0.4-0.8-0.4c-0.3,0-0.6,0.1-0.8,0.4L0.4,23.1
	C0.1,23.3,0,23.6,0,23.9s0.1,0.6,0.4,0.8L16.6,41c0.2,0.2,0.5,0.4,0.8,0.4c0.3,0,0.6-0.1,0.8-0.4l1.7-1.7c0.2-0.2,0.4-0.5,0.4-0.8
	c0-0.3-0.1-0.6-0.4-0.8L6.2,23.9l13.7-13.7C20.1,9.9,20.3,9.7,20.3,9.4L20.3,9.4z M63.5,23.1L47.2,6.9c-0.2-0.2-0.5-0.4-0.8-0.4
	s-0.6,0.1-0.8,0.4l-1.7,1.7c-0.2,0.2-0.4,0.5-0.4,0.8s0.1,0.6,0.4,0.8l13.7,13.7L43.8,37.6c-0.2,0.2-0.4,0.5-0.4,0.8
	c0,0.3,0.1,0.6,0.4,0.8l1.7,1.7c0.2,0.2,0.5,0.4,0.8,0.4s0.6-0.1,0.8-0.4l16.3-16.3c0.2-0.2,0.4-0.5,0.4-0.8
	C63.8,23.6,63.7,23.3,63.5,23.1L63.5,23.1z"/>
</svg>
