<?xml version="1.0" encoding="utf-8"?>
<!-- Generator: Adobe Illustrator 19.0.0, SVG Export Plug-In . SVG Version: 6.00 Build 0)  -->
<svg version="1.1" id="Layer_1" xmlns="http://www.w3.org/2000/svg" xmlns:xlink="http://www.w3.org/1999/xlink" x="0px" y="0px"
	 viewBox="14 -14 128 116.6" style="enable-background:new 14 -14 128 116.6;" xml:space="preserve">
<style type="text/css">
	.st0{fill:#FC6D26;}
	.st1{fill:#DD2741;}
	.st2{fill:#EF3360;}
	.st3{fill:#F46483;}
</style>
<g>
	<path class="st0" d="M140.6,52.2l-7-21.6l-13.9-42.9c-0.7-2.2-3.8-2.2-4.6,0l-13.9,42.9H54.9L40.9-12.3c-0.7-2.2-3.8-2.2-4.6,0
		L22.4,30.6l-7,21.6c-0.6,2,0.1,4.1,1.7,5.4L78,101.8l60.9-44.2C140.6,56.3,141.3,54.2,140.6,52.2"/>
	<path class="st1" d="M78,101.8l23.1-71.2H54.9L78,101.8L78,101.8z"/>
	<path class="st2" d="M78,101.8L54.9,30.6H22.4L78,101.8L78,101.8z"/>
	<path class="st3" d="M22.4,30.6l-7,21.6c-0.6,2,0.1,4.1,1.7,5.4L78,101.8L22.4,30.6L22.4,30.6z"/>
	<path class="st1" d="M22.4,30.6h32.4L40.9-12.3c-0.7-2.2-3.8-2.2-4.6,0L22.4,30.6L22.4,30.6z"/>
	<path class="st2" d="M78,101.8l23.1-71.2h32.4L78,101.8L78,101.8z"/>
	<path class="st3" d="M133.6,30.6l7,21.6c0.6,2-0.1,4.1-1.7,5.4L78,101.8L133.6,30.6L133.6,30.6z"/>
	<path class="st1" d="M133.6,30.6h-32.4l13.9-42.9c0.7-2.2,3.8-2.2,4.6,0L133.6,30.6L133.6,30.6z"/>
</g>
</svg>
