<?xml version="1.0" encoding="utf-8"?>
<!-- Generator: Adobe Illustrator 19.0.0, SVG Export Plug-In . SVG Version: 6.00 Build 0)  -->
<svg version="1.1" id="Layer_1" xmlns="http://www.w3.org/2000/svg" xmlns:xlink="http://www.w3.org/1999/xlink" x="0px" y="0px"
	 viewBox="0 5.5 100 91.5" style="enable-background:new 0 5.5 100 91.5;" xml:space="preserve">
<style type="text/css">
	.st0{fill:#F5333F;}
</style>
<path id="XMLID_17_" class="st0" d="M99.5,57.8L99.5,57.8l-5.6-17.1l-11-33.9c-0.4-1.3-1.9-1.6-2.9-1c-0.3,0.2-0.6,0.4-0.7,0.9
	l-11,33.8H31.7l-7.3-22.4L20.7,6.8c-0.1-0.2-0.2-0.4-0.3-0.5c-0.1-0.1-0.1-0.1-0.2-0.2c-0.7-0.7-1.9-0.7-2.7,0.1
	c-0.2,0.2-0.3,0.4-0.4,0.7l-11,33.9L3.8,48l-3.2,9.9c-0.4,1.2-0.1,2.6,0.7,3.6C1.5,61.8,1.7,62,2,62.2l48.1,35l48.1-35
	C99.4,61.1,100,59.4,99.5,57.8z"/>
</svg>
