<svg xmlns="http://www.w3.org/2000/svg" width="512" height="512"><path fill="#FF0C40" d="M30.269 0l41.072 460.815L255.719 512l184.861-51.262L481.731 0H30.269zm375.112 431.412L256.768 472.6v.233l-.388-.117-.391.117v-.233l-148.611-41.188L72.257 37.669h368.249l-35.125 393.743zm-80.004-166.31l-6.535 73.276-62.968 16.996-.137.039-62.931-16.958-4.025-45.117h-56.745l7.915 88.756 115.786 32.127h.137l.115-.039 115.671-32.088 15.521-173.506H181.197l-5.151-57.874h216.266l5.057-56.513H114.26l15.249 170.9h195.868v.001z"/></svg>