<?xml version="1.0" encoding="iso-8859-1"?>
<!-- Generator: Adobe Illustrator 22.1.0, SVG Export Plug-In . SVG Version: 6.00 Build 0)  -->
<svg version="1.1" id="Warstwa_1" xmlns="http://www.w3.org/2000/svg" xmlns:xlink="http://www.w3.org/1999/xlink" x="0px" y="0px"
	 viewBox="0 0 230.08 460.158" style="enable-background:new 0 0 230.08 460.158;" xml:space="preserve">
<g>
	<path style="fill:#000000;" d="M158.361,250.236l-86.639,40.399V77.755l86.639,40.399V250.236z M158.361,300.407l-86.639,40.399
		v-21.683l86.639-40.399V300.407z M184.179,302.349V130.195l20.083,9.326v116.116c14.255,0.016,25.818-11.533,25.818-25.789V138.15
		c0-8.847-5.127-16.896-13.146-20.636L71.722,49.268V27.584l112.457,52.437v-12.06c0-10.021-5.805-19.133-14.889-23.371
		L78.296,2.161C63.201-4.879,45.904,6.14,45.904,22.797v411.575c0,14.239,11.543,25.785,25.785,25.785h0.032v-90.864l99.311-46.308
		C179.052,319.245,184.179,311.2,184.179,302.349"/>
	<path style="fill:#000000;" d="M25.789,46.298C11.546,46.298,0,57.845,0,72.084v316.729c0,14.242,11.546,25.789,25.789,25.789
		V46.298z"/>
</g>
</svg>
