<?xml version="1.0" encoding="utf-8"?>
<!-- Generator: Adobe Illustrator 19.0.0, SVG Export Plug-In . SVG Version: 6.00 Build 0)  -->
<svg version="1.1" id="Forma_1_1_" xmlns="http://www.w3.org/2000/svg" xmlns:xlink="http://www.w3.org/1999/xlink" x="0px" y="0px"
	 viewBox="0 0 109.3 151.3" style="enable-background:new 0 0 109.3 151.3;" xml:space="preserve">
<style type="text/css">
	.st0{fill-rule:evenodd;clip-rule:evenodd;fill:#D02741;}
</style>
<g id="Forma_1">
	<g>
		<path class="st0" d="M54.7,1.5C25.1,1.5,1.2,25.4,1.2,55c0,10.3,3.3,20.2,7.9,28.3l34.9,60.3c2.2,3.9,6.6,5.9,10.8,5.9c4.2,0,8.3-2,10.8-5.9l34.9-60.3c4.6-8.1,7.9-17.8,7.9-28.3C108.2,25.4,84.3,1.5,54.7,1.5z M54.7,70.8c-10.8,0-19.5-8.8-19.5-19.5c0-10.7,8.8-19.5,19.5-19.5c10.8,0,19.5,8.8,19.5,19.5C74.2,62,65.4,70.8,54.7,70.8z"/>
	</g>
</g>
</svg>
