<svg xmlns="http://www.w3.org/2000/svg" xmlns:xlink="http://www.w3.org/1999/xlink" id="Layer_1" viewBox="0 0 1200 1200"><style>.st4{fill:#fff}</style><defs><path id="SVGID_1_" d="M1088.7 1165.5H111.3c-42.4 0-76.7-34.4-76.7-76.7V111.3c0-42.4 34.4-76.7 76.7-76.7h977.4c42.4 0 76.7 34.4 76.7 76.7v977.4c.1 42.4-34.3 76.8-76.7 76.8z"/></defs><clipPath id="SVGID_2_"><use xlink:href="#SVGID_1_" overflow="visible"/></clipPath><g clip-path="url(#SVGID_2_)"><linearGradient id="SVGID_3_" gradientUnits="userSpaceOnUse" x1="426.674" y1="482.499" x2="1284.413" y2="1239.984"><stop xmlns="http://www.w3.org/2000/svg" offset="0" stop-color="#ea1630"/><stop xmlns="http://www.w3.org/2000/svg" offset="1" stop-color="#f86e8e"/></linearGradient><path fill="url(#SVGID_3_)" d="M573.6 1896.7l-661.5-610.1L1204.5-115 1866 495z"/><linearGradient id="SVGID_4_" gradientUnits="userSpaceOnUse" x1="1128.991" y1="-135.804" x2="-496.291" y2="788.155"><stop xmlns="http://www.w3.org/2000/svg" offset="0" stop-color="#ea1630"/><stop xmlns="http://www.w3.org/2000/svg" offset="1" stop-color="#ea1630"/></linearGradient><path fill="url(#SVGID_4_)" d="M-66.9 1307.6l-577.2-532.1L648.4-626.1 1225.5-94z"/><path transform="rotate(-15.017 248.845 809.781)" opacity=".28" fill="#c24411" d="M-143.7-143.6h785v1906.5h-785z"/></g><g><path class="st4" d="M384.9 900.1H245.4v-45.3H331V345.2h-85.6v-45.3h139.5v600.2zM745.7 463c-16.1 60.4-35 118.2-56.7 173.6-21.7 55.4-42.7 105-62.9 148.8H574c-20.3-43.8-41.2-93.4-62.9-148.8-21.7-55.4-40.6-113.2-56.7-173.6h62c5 20.3 10.8 41.9 17.7 64.8s14 45.7 21.7 68.2c7.6 22.5 15.4 44.3 23.2 65.4 7.8 21.1 15.3 39.9 22.3 56.4 7-16.5 14.5-35.3 22.3-56.4 7.8-21.1 15.6-42.9 23.2-65.4 7.6-22.5 14.9-45.3 21.7-68.2s12.7-44.5 17.7-64.8h59.5zM815.1 299.9h139.5v45.3H869v509.6h85.6v45.3H815.1V299.9z"/></g></svg>