<?xml version="1.0" encoding="utf-8"?>
<!-- Generator: Adobe Illustrator 19.0.0, SVG Export Plug-In . SVG Version: 6.00 Build 0)  -->
<svg version="1.1" id="Forma_1_1_" xmlns="http://www.w3.org/2000/svg" xmlns:xlink="http://www.w3.org/1999/xlink" x="0px" y="0px"
	 viewBox="-10 19 78 63" style="enable-background:new -10 19 78 63;" xml:space="preserve">
<style type="text/css">
	.st0{fill:#F5333F;}
</style>
<g id="Forma_1">
	<g>
		<path class="st0" d="M56,53.7c-5.4-1.9-7.1-3-7.1-5.1c0-2.3,1.9-3.7,5.2-3.7c3.8,0,7.6,1.5,9.6,2.6l2.4-9.6
			c-2.7-1.4-7.3-2.6-12.5-2.6c-11,0-18,6.3-18,14.6c-0.1,5.3,3.4,10.4,12.6,13.4c5.1,1.8,6.5,2.8,6.5,5.1c0,2.3-1.7,3.8-5.9,3.8
			c-4.1,0-9.3-1.8-11.9-3.4l-2.5,10C37.8,80.7,43,82,48.8,82C61.5,82,68,75.9,68,67.5C67.9,61,64.4,56.6,56,53.7z M27.3,23.9
			C23.2,20.6,17.2,19,8.6,19C0.2,19-5.8,19.6-10,20.3v60.8H3.7v-22l0,0c1.3,0.2,2.9,0.2,4.7,0.2c8.2,0,15.1-2,19.8-6.5
			c3.7-3.5,5.6-8.6,5.6-14.6C33.8,32.2,31.2,27,27.3,23.9z M8.3,48.6c-2,0-3.4-0.1-4.6-0.3V30.1c1-0.3,2.9-0.6,5.7-0.6
			c6.9,0,10.8,3.4,10.8,9C20.2,44.9,15.6,48.6,8.3,48.6z"/>
	</g>
</g>
</svg>
