<svg id="Layer_1" xmlns="http://www.w3.org/2000/svg" viewBox="0 0 273 250"><style>.st0{fill:#f5333f}</style><path class="st0" d="M101.5 0C77 0 56.6 18.1 53.1 41.7c-16.9 3.5-29.7 18.5-29.7 36.5v4.7C9.9 86.5 0 98.7 0 113.3v23.4c0 14.6 9.9 26.8 23.4 30.4v4.7c0 18 12.8 33 29.7 36.5C56.6 231.9 77 250 101.5 250H127V0h-25.5zm9.5 234h-9.5c-15.5 0-28.5-10.7-32-25.1h20.3v-16H60.6v.2c-11.7 0-21.2-9.5-21.2-21.2v-3.7h35V125h-16v27.1h-27c-8.5 0-15.4-6.9-15.4-15.4v-23.4c0-8.5 6.9-15.4 15.4-15.4h8V78.2c0-11.7 9.5-21.2 21.2-21.2h29.2V41H69.6c3.5-14.4 16.5-25 31.9-25h9.5v218zM249.6 82.9v-4.7c0-18-12.8-33-29.7-36.5C216.4 18.1 196 0 171.5 0H146v250h25.5c24.5 0 44.8-18.1 48.3-41.7 16.9-3.5 29.7-18.5 29.7-36.5v-4.7c13.4-3.6 23.4-15.8 23.4-30.4v-23.4c.1-14.6-9.8-26.8-23.3-30.4zm7.4 53.8c0 8.5-6.9 15.4-15.4 15.4h-8v19.7c0 11.7-9.5 21.2-21.2 21.2v-.2h-29.2v16h20.3c-3.5 14.5-16.5 25.2-32 25.2H162V16h9.5c15.4 0 28.3 10.6 31.9 24.9h-20.2v16h29.2c11.7 0 21.2 9.5 21.2 21.2v4.1h-35v43.1h16V98.4h30v-.2c7.1 1.4 12.4 7.6 12.4 15.1v23.4z"/></svg>