<svg id="Layer_1" xmlns="http://www.w3.org/2000/svg" viewBox="0 0 405 388"><style>.st0{fill:#f5333f}</style><path class="st0" d="M124 219.5H23.4c-1 0-1.8-.8-1.8-1.8V70.1h211.6v35.2h.2c7.4 0 14.6.8 21.6 2.2V13.3c0-7.6-6.2-13.7-13.7-13.7H13.6C6-.4-.1 5.8-.1 13.3v214.4c0 7.6 6.2 13.7 13.7 13.7h113.8c-1.9-7-3-14.3-3.4-21.9zm90.1-198.8c6.3 0 11.4 5.1 11.4 11.4 0 6.3-5.1 11.4-11.4 11.4-6.3 0-11.4-5.1-11.4-11.4.1-6.3 5.2-11.4 11.4-11.4zm-38.5 0c6.3 0 11.4 5.1 11.4 11.4 0 6.3-5.1 11.4-11.4 11.4-6.3 0-11.4-5.1-11.4-11.4.1-6.3 5.2-11.4 11.4-11.4zM34.7 26.1h45.8c3.2 0 5.9 2.6 5.9 5.9 0 3.2-2.6 5.9-5.9 5.9H34.7c-3.2 0-5.9-2.6-5.9-5.9 0-3.2 2.6-5.9 5.9-5.9z"/><path class="st0" d="M397.7 345.9l-64.5-65.5c-.3-.3-.7-.6-1.1-.9 12.9-19.3 20.6-42.5 20.8-67.4.5-67.9-54.1-123.4-122-123.9s-123.4 54.1-123.9 122 54.1 123.4 122 123.9c25 .2 48.2-7.1 67.7-19.7.3.4.6.8.9 1.1l64.5 65.5c9.7 9.8 25.5 10 35.3.3 9.9-9.8 10-25.6.3-35.4zm-168.4-54.4c-44.4-.3-80.1-36.6-79.7-80.9.3-44.4 36.6-80.1 80.9-79.7 44.4.3 80.1 36.6 79.7 80.9-.2 44.3-36.5 80-80.9 79.7z" id="Search"/><path class="st0" d="M234.1 124.2v93.1c0 1.5-1.2 2.7-2.7 2.7h-93.5v33.6h108.5c11.5 0 20.9-9.4 20.9-20.9V124.2h-33.2z"/><path class="st0" d="M217 167.5c0 3.1-2.5 5.7-5.7 5.7h-82.7c-3.1 0-5.7-2.5-5.7-5.7v-4.3c0-3.1 2.5-5.7 5.7-5.7h82.7c3.1 0 5.7 2.5 5.7 5.7v4.3zM217 198.9c0 3.1-2.5 5.7-5.7 5.7h-81.7c-3.1 0-5.7-2.5-5.7-5.7v-4.3c0-3.1 2.5-5.7 5.7-5.7h81.7c3.1 0 5.7 2.5 5.7 5.7v4.3z"/></svg>