<!-- Generated by IcoMoon.io -->
<svg version="1.1" xmlns="http://www.w3.org/2000/svg" fill="#FF0C40" width="34" height="32" viewBox="0 0 34 32">
<title>-screen-code</title>
<path d="M30.848 0h-28.192c-1.44 0-2.656 1.184-2.656 2.656v21.12c0 1.44 1.216 2.656 2.656 2.656h9.408l-1.312 3.872h-1.088c-0.448 0-0.832 0.384-0.832 0.832 0 0.48 0.384 0.864 0.832 0.864h14.144c0.48 0 0.832-0.384 0.832-0.864 0-0.448-0.352-0.832-0.832-0.832h-1.056l-1.312-3.904h9.408c1.44 0 2.656-1.216 2.656-2.656v-21.088c0-1.472-1.216-2.656-2.656-2.656zM12.512 30.304l1.312-3.904h5.824l1.312 3.904h-8.448zM31.808 23.776c0 0.512-0.416 0.96-0.96 0.96h-28.192c-0.544 0-0.96-0.448-0.96-0.96v-3.040h30.144v3.040zM31.808 19.040h-30.112v-16.384c0-0.544 0.416-0.96 0.96-0.96h28.192c0.544 0 0.96 0.416 0.96 0.96v16.384zM16.736 23.68c0.256 0 0.48-0.096 0.608-0.256 0.16-0.16 0.256-0.384 0.256-0.608s-0.096-0.448-0.256-0.608c-0.128-0.128-0.352-0.224-0.608-0.224-0.224 0-0.448 0.096-0.576 0.224-0.16 0.16-0.256 0.384-0.256 0.608s0.096 0.448 0.256 0.608c0.128 0.16 0.352 0.256 0.576 0.256zM23.264 10.528c-0.352-0.096-0.704 0.096-0.8 0.448l-1.44 5.184c-0.096 0.352 0.096 0.704 0.448 0.8 0.064 0.032 0.128 0.032 0.192 0.032 0.256 0 0.544-0.192 0.608-0.48l1.44-5.184c0.096-0.352-0.096-0.704-0.448-0.8zM17.216 13.76l1.824-2.208c0.224-0.288 0.192-0.672-0.096-0.928-0.256-0.224-0.672-0.192-0.896 0.064l-2.112 2.624c-0.224 0.224-0.224 0.576 0 0.8l2.112 2.624c0.128 0.128 0.288 0.224 0.512 0.224 0.128 0 0.288-0.064 0.384-0.16 0.288-0.224 0.32-0.64 0.096-0.928l-1.824-2.112zM28.864 13.312l-2.144-2.592c-0.224-0.256-0.608-0.288-0.896-0.064s-0.288 0.64-0.064 0.928l1.792 2.176-1.792 2.176c-0.224 0.288-0.224 0.672 0.064 0.928 0.128 0.096 0.288 0.16 0.416 0.16 0.16 0 0.352-0.064 0.48-0.224l2.144-2.592c0.192-0.288 0.192-0.64 0-0.896z"></path>
</svg>
