<svg id="Forma_1_1_" xmlns="http://www.w3.org/2000/svg" viewBox="0 0 313 197"><style>.st0{fill:#4affff}</style><path class="st0" d="M311.2 128.9H300c-1 0-1.8.8-1.8 1.9v1.5h-38.8c4-2.9 7.9-6.4 11.6-10.4 10.4-11.1 18.8-25.4 26-37.9h6.3c1 0 1.8-.8 1.8-1.9v-18c0-1-.8-1.9-1.8-1.9h-18.1c-1 0-1.8.8-1.8 1.9v12.6c-14 24.7-28.6 47.2-52.1 51.3v-2.1c0-.8-.7-1.5-1.5-1.5H211c-.8 0-1.5.7-1.5 1.5v.7c-20.2-6.4-33.6-27.4-45.6-48.5V65.5c0-1-.8-1.9-1.8-1.9h-6.3C148 49.9 139.6 35.5 129 24.3 117.6 12.4 105.5 5.4 91.8 3V1.5c0-.8-.7-1.5-1.5-1.5H71.5c-.8 0-1.5.7-1.5 1.5V3c-13.7 2.4-25.8 9.4-36.9 21.3-10.5 11.2-19 25.6-26.8 39.3H1.8c-1 0-1.8.8-1.8 1.9v18.2c0 1 .8 1.9 1.8 1.9h18.1c1 0 1.8-.8 1.8-1.9V67.8C34.3 46 48.3 24.3 70 18.9v1.4c0 .8.7 1.5 1.5 1.5h18.8c.8 0 1.5-.7 1.5-1.5v-1.4c22.1 5.4 35.8 26.8 50.1 52.1v12.6c0 1 .8 1.9 1.8 1.9h6.3c7.3 12.8 15.4 26.1 25.2 36.5 3.7 4 7.6 7.5 11.6 10.4h-39.7v-1.5c0-1-.8-1.9-1.8-1.9h-11.2c-1 0-1.8.8-1.8 1.9V142c0 1 .8 1.9 1.8 1.9h11.5c0 .1 0 .3.1.4l16 51.4c.2.8.9 1.3 1.7 1.3h.1c.8 0 1.4-.5 1.7-1.2l7.7-19.6 20.8-2.8c.8-.1 1.4-.7 1.6-1.5.2-.8-.2-1.6-.9-2l-45.9-27.8c-.4-.2-.8-.3-1.2-.2v-1.4H202c2.4.9 4.9 1.6 7.5 2.2v2.1c0 .8.7 1.5 1.5 1.5h18.8c.8 0 1.5-.7 1.5-1.5v-1.1c4.5-.6 8.9-1.6 13.1-3.2h53.9v1.5c0 1 .8 1.9 1.8 1.9h11.2c1 0 1.8-.8 1.8-1.9v-11.2c-.1-1-.9-1.9-1.9-1.9zM142 138.7h-4.6v-4.6h4.6v4.6zm165.8 0h-4.6v-4.6h4.6v4.6z" id="Forma_1"/></svg>