<svg id="Forma_1_1_" xmlns="http://www.w3.org/2000/svg" viewBox="0 0 139 139"><style>.st0{fill:#4affff}</style><path class="st0" d="M135.4 116.5h-6.7c-2 0-3.6 1.6-3.6 3.6v5h-5c-2 0-3.6 1.6-3.6 3.6v6.7c0 2 1.6 3.6 3.6 3.6h15.4c2 0 3.6-1.6 3.6-3.6V120c-.1-1.9-1.7-3.5-3.7-3.5zm-75.8 8.6h-21c-2 0-3.6 1.6-3.6 3.6v6.7c0 2 1.6 3.6 3.6 3.6h21c2 0 3.6-1.6 3.6-3.6v-6.7c0-2-1.6-3.6-3.6-3.6zm40.8 0h-21c-2 0-3.6 1.6-3.6 3.6v6.7c0 2 1.6 3.6 3.6 3.6h21c2 0 3.6-1.6 3.6-3.6v-6.7c-.1-2-1.7-3.6-3.6-3.6zm-81.5 0h-5v-5c0-2-1.6-3.6-3.6-3.6H3.6c-2 0-3.6 1.6-3.6 3.6v15.4c0 2 1.6 3.6 3.6 3.6H19c2 0 3.6-1.6 3.6-3.6v-6.7c-.1-2.1-1.7-3.7-3.7-3.7zM3.6 103.9h6.7c2 0 3.6-1.6 3.6-3.6v-21c0-2-1.6-3.6-3.6-3.6H3.6c-2 0-3.6 1.6-3.6 3.6v21c0 2 1.6 3.6 3.6 3.6zm0-40.7h6.7c2 0 3.6-1.6 3.6-3.6v-21c0-2-1.6-3.6-3.6-3.6H3.6c-2 0-3.6 1.6-3.6 3.6v21c0 2 1.6 3.6 3.6 3.6zM18.9 0H3.6C1.6 0 0 1.6 0 3.6V19c0 2 1.6 3.6 3.6 3.6h6.7c2 0 3.6-1.6 3.6-3.6v-5h5c2 0 3.6-1.6 3.6-3.6V3.6c0-2-1.6-3.6-3.6-3.6zm81.5 0h-21c-2 0-3.6 1.6-3.6 3.6v6.7c0 2 1.6 3.6 3.6 3.6h21c2 0 3.6-1.6 3.6-3.6V3.6c-.1-2-1.7-3.6-3.6-3.6zM38.6 13.9h21c2 0 3.6-1.6 3.6-3.6V3.6c0-2-1.6-3.6-3.6-3.6h-21c-2 0-3.6 1.6-3.6 3.6v6.7c.1 2 1.7 3.6 3.6 3.6zM135.4 0H120c-2 0-3.6 1.6-3.6 3.6v6.7c0 2 1.6 3.6 3.6 3.6h5v5c0 2 1.6 3.6 3.6 3.6h6.7c2 0 3.6-1.6 3.6-3.6V3.6c.1-2-1.5-3.6-3.5-3.6zm0 75.8h-6.7c-2 0-3.6 1.6-3.6 3.6v21c0 2 1.6 3.6 3.6 3.6h6.7c2 0 3.6-1.6 3.6-3.6v-21c0-2-1.6-3.6-3.6-3.6zm0-40.7h-6.7c-2 0-3.6 1.6-3.6 3.6v21c0 2 1.6 3.6 3.6 3.6h6.7c2 0 3.6-1.6 3.6-3.6v-21c0-2-1.6-3.6-3.6-3.6z" id="Forma_1"/></svg>