<svg id="Forma_1_1_" xmlns="http://www.w3.org/2000/svg" viewBox="0 0 261 261"><style>.st0{fill:#4affff}</style><path class="st0" d="M254.5 204.9h-24.2V37.2c0-3.6-2.9-6.5-6.5-6.5H56.1V6.5c0-3.6-2.9-6.5-6.5-6.5H37.2c-3.6 0-6.5 2.9-6.5 6.5v24.2H6.5c-3.6 0-6.5 2.9-6.5 6.5v12.4c0 3.6 2.9 6.5 6.5 6.5h24.2v167.6c0 3.6 2.9 6.5 6.5 6.5h167.6v24.2c0 3.6 2.9 6.5 6.5 6.5h12.4c3.6 0 6.5-2.9 6.5-6.5v-24.2h24.2c3.6 0 6.5-2.9 6.5-6.5v-12.4c.1-3.5-2.8-6.4-6.4-6.4zm-49.6 0H56.1V56.1h148.7v148.8z" id="Forma_1"/></svg>