<svg id="Forma_1_1_" xmlns="http://www.w3.org/2000/svg" viewBox="0 0 98 151"><style>.st0{fill:#4affff}</style><path class="st0" d="M26.3 51.6c-.5-.2-1-.3-1.5-.3-1 0-2 .4-2.8 1.2L1.3 73.1c-.7.7-1.2 1.7-1.2 2.8 0 1 .4 2.1 1.2 2.8L22 99.4c1.1 1.1 2.8 1.5 4.3.9s2.4-2.1 2.4-3.7V55.2c0-1.6-.9-3-2.4-3.6zm70.5 21.5L76.2 52.4c-.8-.8-1.8-1.2-2.8-1.2-.5 0-1 .1-1.5.3-1.5.6-2.4 2.1-2.4 3.7v41.3c0 1.6 1 3 2.4 3.7 1.5.6 3.2.3 4.3-.9l20.7-20.7c.7-.7 1.2-1.7 1.2-2.8-.1-.9-.5-2-1.3-2.7zM50.2.8H48c-2.2 0-4 1.8-4 4v12.6c0 2.2 1.8 4 4 4h2.2c2.2 0 4-1.8 4-4V4.8c-.1-2.2-1.9-4-4-4zm0 34.3H48c-2.2 0-4 1.8-4 4v26c0 2.2 1.8 4 4 4h2.2c2.2 0 4-1.8 4-4V39c-.1-2.2-1.9-3.9-4-3.9zm0 47.7H48c-2.2 0-4 1.8-4 4v26c0 2.2 1.8 4 4 4h2.2c2.2 0 4-1.8 4-4v-26c-.1-2.2-1.9-4-4-4zm0 47.7H48c-2.2 0-4 1.8-4 4V147c0 2.2 1.8 4 4 4h2.2c2.2 0 4-1.8 4-4v-12.6c-.1-2.1-1.9-3.9-4-3.9z" id="Forma_1"/></svg>