<svg id="Shape_1_1_" xmlns="http://www.w3.org/2000/svg" viewBox="0 0 329 159"><style>.st0{fill:#4affff}</style><path class="st0" d="M186.5.6c-8.5-2.3-17.2 2.6-19.6 11.1l-35.4 127.2c-2.4 8.5 2.6 17.2 11.1 19.6 1.4.4 2.9.6 4.3.6 7 0 13.4-4.6 15.3-11.6l35.4-127.2c2.3-8.6-2.7-17.4-11.1-19.7zm-149.9 79l44.6-53.5c5.6-6.8 4.7-16.8-2.1-22.4-6.7-5.6-16.7-4.7-22.4 2l-53 63.8c-4.9 5.9-4.9 14.5 0 20.4l53.1 63.5c3.1 3.8 7.7 5.7 12.2 5.7 3.6 0 7.2-1.2 10.2-3.7 6.7-5.6 7.7-15.7 2-22.4L36.6 79.6zm288.7-10.4L272.2 5.7c-5.6-6.7-15.7-7.6-22.4-2-6.7 5.6-7.6 15.7-2 22.4l44.6 53.3-44.6 53.5c-5.6 6.8-4.7 16.8 2.1 22.4 3 2.5 6.6 3.7 10.2 3.7 4.6 0 9.1-2 12.2-5.7l53.1-63.7c4.8-6 4.8-14.5-.1-20.4z" id="Shape_1"/></svg>