<svg id="Forma_1_1_" xmlns="http://www.w3.org/2000/svg" viewBox="0 0 131 131"><style>.st0{fill:#4affff}</style><path class="st0" d="M71.1 28.7c-.1-1.4-.9-2.7-2.3-3.2L4.9.2C3.6-.3 2.1 0 1 1 0 2-.3 3.5.2 4.9l25.3 63.9c.5 1.3 1.8 2.2 3.2 2.3h.1c1.4 0 2.6-.8 3.2-2l12.2-24.7L69 32.2c1.4-.7 2.2-2.1 2.1-3.5zm58 59.1l-12.4-8.5c-1.1-.8-2.5-.8-3.7-.2-1.2.6-1.9 1.8-1.9 3.2V85H96.6V70.6h2.7c2 0 3.6-1.6 3.6-3.6 0-.8-.3-1.6-.8-2.2l-8.4-12.2c-.7-1-1.8-1.6-3-1.6s-2.3.6-3 1.6L79.2 65c-.8 1.1-.8 2.5-.2 3.7.6 1.2 1.8 1.9 3.2 1.9h2.7V85H70.6v-2.7c0-1.3-.7-2.6-1.9-3.2-1.2-.6-2.6-.5-3.7.2l-12.4 8.5c-1 .7-1.6 1.8-1.6 3s.6 2.3 1.6 3l12.4 8.5c1.1.8 2.5.8 3.7.2 1.2-.6 1.9-1.8 1.9-3.2v-2.7H85V111h-2.7c-1.3 0-2.6.7-3.2 1.9-.6 1.2-.5 2.6.2 3.7l8.5 12.4c.7 1 1.8 1.6 3 1.6s2.3-.6 3-1.6l8.5-12.4c.8-1.1.8-2.5.2-3.7-.6-1.2-1.8-1.9-3.2-1.9h-2.7V96.5H111v2.7c0 1.3.7 2.6 1.9 3.2 1.2.6 2.6.5 3.7-.2l12.4-8.5c1-.7 1.6-1.8 1.6-3 0-1.1-.6-2.2-1.5-2.9z" id="Forma_1"/></svg>