<?xml version="1.0" encoding="utf-8"?>
<!-- Generator: Adobe Illustrator 19.0.0, SVG Export Plug-In . SVG Version: 6.00 Build 0)  -->
<svg version="1.1" id="Layer_1" xmlns="http://www.w3.org/2000/svg" xmlns:xlink="http://www.w3.org/1999/xlink" x="0px" y="0px"
	 viewBox="0 0 100 90.5" style="enable-background:new 0 0 100 90.5;" xml:space="preserve">
<style type="text/css">
	.st0{fill:#FDB300;}
	.st1{fill:#DD2741;}
	.st2{fill:#EF3360;}
	.st3{fill:#F46483;}
	.st4{fill:#F49AB2;}
</style>
<g id="XMLID_11_">
	<polygon id="XMLID_9_" class="st0" points="50,0 21.8,3 0,32.3 50,90.5 100,32.3 78.2,3 	"/>
	<polygon id="XMLID_8_" class="st1" points="0,32.3 50,90.5 20.3,32.3 	"/>
	<polygon id="XMLID_7_" class="st1" points="79.7,32.3 50,90.5 100,32.3 	"/>
	<polygon id="XMLID_6_" class="st2" points="20.3,32.3 50,90.5 79.7,32.3 	"/>
	<polygon id="XMLID_5_" class="st3" points="21.8,3 20.3,32.3 50,0 	"/>
	<polygon id="XMLID_4_" class="st3" points="79.7,32.3 78.2,3 50,0 	"/>
	<polygon id="XMLID_3_" class="st2" points="79.7,32.3 100,32.3 78.2,3 	"/>
	<polygon id="XMLID_2_" class="st2" points="0,32.3 20.3,32.3 21.8,3 	"/>
	<polygon id="XMLID_1_" class="st4" points="50,0 20.3,32.3 79.7,32.3 	"/>
</g>
</svg>
