<?xml version="1.0" encoding="utf-8"?>
<!-- Generator: Adobe Illustrator 19.0.0, SVG Export Plug-In . SVG Version: 6.00 Build 0)  -->
<svg version="1.1" id="Layer_1" xmlns="http://www.w3.org/2000/svg" xmlns:xlink="http://www.w3.org/1999/xlink" x="0px" y="0px"
	 viewBox="0 0 100 100" style="enable-background:new 0 0 100 100;" xml:space="preserve">
<style type="text/css">
	.st0{fill:#F49AB2;}
	.st1{fill:#EF3360;}
	.st2{fill:#DD2741;}
	.st3{fill:#A0222B;}
	.st4{fill:#BB242A;}
	.st5{fill:#F46483;}
</style>
<g id="XMLID_10_">
	<path id="XMLID_8_" class="st0" d="M64.7,6.6c-1.5-4.6-6.5-7.1-11.1-5.6C49,2.4,46.4,7.4,47.9,12l22.7,70c1.6,4.3,6.2,6.7,10.7,5.5
		c4.7-1.3,7.5-6.3,6-10.9C87.3,76.3,64.7,6.6,64.7,6.6"/>
	<path id="XMLID_7_" class="st1" d="M29.4,18c-1.5-4.6-6.5-7.1-11.1-5.6c-4.6,1.5-7.1,6.5-5.6,11.1l22.7,70
		c1.6,4.3,6.2,6.7,10.7,5.5c4.7-1.3,7.5-6.3,6-10.9C52.1,87.8,29.4,18,29.4,18"/>
	<path id="XMLID_6_" class="st2" d="M93.3,64.5c4.6-1.5,7.1-6.5,5.6-11.1c-1.5-4.6-6.5-7.1-11.1-5.6l-70,22.7
		c-4.3,1.6-6.7,6.2-5.5,10.7c1.3,4.7,6.3,7.5,10.9,6C23.5,87.2,93.3,64.5,93.3,64.5"/>
	<path id="XMLID_5_" class="st3" d="M32.5,84.2c4.6-1.5,10.4-3.4,16.7-5.4c-1.5-4.6-3.4-10.4-5.4-16.7L27,67.5L32.5,84.2"/>
	<path id="XMLID_4_" class="st4" d="M67.7,72.8c6.3-2.1,12.2-4,16.7-5.4C82.9,62.8,81,56.9,79,50.6l-16.7,5.4L67.7,72.8"/>
	<path id="XMLID_3_" class="st5" d="M81.8,29.3c4.6-1.5,7.1-6.5,5.6-11.1C86,13.6,81,11,76.4,12.5l-70,22.7C2.1,36.8-0.3,41.5,1,46
		c1.3,4.7,6.3,7.5,10.9,6C12,51.9,81.8,29.3,81.8,29.3"/>
	<path id="XMLID_2_" class="st4" d="M21,49c4.6-1.5,10.4-3.4,16.7-5.4c-2.1-6.3-4-12.2-5.4-16.7l-16.7,5.4L21,49"/>
	<path id="XMLID_1_" class="st2" d="M56.2,37.6c6.3-2.1,12.2-4,16.7-5.4c-2.1-6.3-4-12.2-5.4-16.7l-16.7,5.4L56.2,37.6"/>
</g>
</svg>
