<svg xmlns="http://www.w3.org/2000/svg" id="Layer_1" viewBox="0 0 79 64">
  <g id="XMLID_2_">
    <path  fill="#e91c32" id="svg_1" d="M53 47.4V44c4.8-2.6 8.7-9.1 8.7-15.6 0-10.4 0-18.8-13-18.8s-13 8.4-13 18.8c0 6.5 3.9 13 8.7 15.6v3.5c-14.7 1.2-26 8.1-26 16.6H79c0-8.5-11.3-15.5-26-16.7z" class="st0"/>
    <path  fill="#e91c32" id="svg_2" d="M25.3 47.3c4.3-2.2 9.6-3.8 15.4-4.8-1.2-1.1-2.2-2.3-3.1-3.5-2.3-3.3-3.6-6.9-3.6-10.5 0-5.1 0-10 2.4-13.9 2.3-3.8 6.4-6.2 12.3-7.1C47.4 3 43.9 0 34.6 0 19.8 0 19.8 7.7 19.8 17.1c0 5.9 4.4 11.8 9.9 14.2v3.1C12.9 35.5 0 41.8 0 49.5h21.6c1.1-.8 2.3-1.5 3.7-2.2z" class="st0"/>
  </g>
</svg>
