<svg xmlns="http://www.w3.org/2000/svg" viewBox="0 0 255 241"><path d="M241.3 0H13.7C6.1 0 0 6.1 0 13.7v213.7c0 7.5 6.1 13.7 13.7 13.7h227.6c7.6 0 13.7-6.1 13.7-13.7V13.7C255 6.1 248.9 0 241.3 0zm-27.1 21c6.3 0 11.4 5.1 11.4 11.3s-5.1 11.3-11.4 11.3c-6.3 0-11.4-5.1-11.4-11.3 0-6.3 5.1-11.3 11.4-11.3zm-38.5 0c6.3 0 11.4 5.1 11.4 11.3s-5.1 11.3-11.4 11.3c-6.3 0-11.4-5.1-11.4-11.3 0-6.3 5.1-11.3 11.4-11.3zM34.8 26.4h45.8c3.2 0 5.9 2.6 5.9 5.9 0 3.2-2.6 5.9-5.9 5.9H34.8c-3.2 0-5.9-2.6-5.9-5.9 0-3.3 2.6-5.9 5.9-5.9zm198.4 190.9c0 1-.8 1.8-1.8 1.8H23.6c-1 0-1.8-.8-1.8-1.8V70.2h211.5v147.1h-.1z" fill="#f5333f"/></svg>