<?xml version="1.0" encoding="utf-8"?>
<!-- Generator: Adobe Illustrator 19.0.0, SVG Export Plug-In . SVG Version: 6.00 Build 0)  -->
<svg version="1.1" id="Forma_1_copy_1_" xmlns="http://www.w3.org/2000/svg" xmlns:xlink="http://www.w3.org/1999/xlink" x="0px"
	 y="0px" viewBox="-8 9 83 83" style="enable-background:new -8 9 83 83;" xml:space="preserve">
<style type="text/css">
	.st0{fill:#F5333F;}
</style>
<g id="Forma_1_copy">
	<g>
		<path class="st0" d="M-8,50.5c0,16.4,9.5,30.6,23.4,37.4L-4.4,33.6C-6.7,38.8-8,44.5-8,50.5z M34.2,54.1L21.8,90.3
			c3.7,1.1,7.7,1.7,11.7,1.7c4.8,0,9.5-0.8,13.8-2.4c-0.1-0.2-0.2-0.4-0.3-0.6L34.2,54.1z M61.5,48.4c0-5.1-1.8-8.7-3.4-11.4
			C56,33.5,54,30.6,54,27.2c0-3.8,2.9-7.4,7-7.4c0.2,0,0.4,0,0.5,0C54.1,13.1,44.3,9,33.5,9C19,9,6.2,16.4-1.2,27.7
			c1,0,8.4-0.3,8.4-0.3l16,48.5l9.1-27.2l-7.4-21.5h13.7l15.6,48.4l4.1-13.8C60.5,56.4,61.5,52,61.5,48.4z M69.9,30.6
			c0.2,1.3,0.3,2.7,0.3,4.3c0,4.2-0.8,8.9-3.2,14.9L54.4,86.4C66.7,79.2,75,65.8,75,50.5C75,43.3,73.2,36.5,69.9,30.6z"/>
	</g>
</g>
</svg>
