<?xml version="1.0" encoding="utf-8"?>
<!-- Generator: Adobe Illustrator 19.0.0, SVG Export Plug-In . SVG Version: 6.00 Build 0)  -->
<svg version="1.1" id="Layer_1" xmlns="http://www.w3.org/2000/svg" xmlns:xlink="http://www.w3.org/1999/xlink" x="0px" y="0px"
	 viewBox="0 0 81.9 64" style="enable-background:new 0 0 81.9 64;" xml:space="preserve">
<style type="text/css">
	.st0{fill:#E91C32;}
</style>
<g id="XMLID_12_">
	<title>Layer 1</title>
	<path id="svg_1" class="st0" d="M79.8,0h-78c-1.2,0-2,0.8-2,1.9v60.2c0,1,0.8,1.9,2,1.9h78.1c1.1,0,2-0.8,2-1.9V1.9
		C81.8,0.8,81,0,79.8,0L79.8,0z M77.9,60.1H3.7V16.7h74.2L77.9,60.1L77.9,60.1z M77.9,12.9H3.7v-9h74.2L77.9,12.9L77.9,12.9z
		 M10.4,10.2c0.5,0,1-0.2,1.4-0.5c0.4-0.4,0.6-0.9,0.6-1.4c0-0.4-0.2-1-0.6-1.3c-0.3-0.3-0.8-0.5-1.4-0.5C9.9,6.5,9.4,6.7,9,7
		C8.7,7.4,8.5,7.9,8.5,8.3c0,0.5,0.2,1,0.5,1.4C9.4,10,9.9,10.2,10.4,10.2z M19.1,10.2c0.5,0,1-0.2,1.4-0.5C20.8,9.3,21,8.8,21,8.3
		c0-0.4-0.2-1-0.6-1.3c-0.3-0.3-0.8-0.5-1.4-0.5c-0.5,0-1,0.2-1.4,0.5c-0.3,0.4-0.6,0.9-0.6,1.3c0,0.5,0.3,1,0.6,1.4
		C18.1,10,18.5,10.2,19.1,10.2z M27.8,10.2c0.5,0,1-0.2,1.4-0.5c0.3-0.4,0.5-0.9,0.5-1.4c0-0.4-0.2-1-0.5-1.3
		c-0.4-0.4-0.8-0.6-1.4-0.6c-0.5,0-1,0.2-1.4,0.6c-0.4,0.3-0.6,0.8-0.6,1.3s0.2,1,0.6,1.3C26.7,10,27.2,10.2,27.8,10.2z M55.8,39.4
		l-4,11.5c1.2,0.4,2.5,0.6,3.8,0.6c1.6,0,3-0.3,4.4-0.8C60,50.7,60,50.6,60,50.6L55.8,39.4L55.8,39.4z M62.3,49.7
		c4-2.3,6.8-6.6,6.8-11.5c0-2.3-0.7-4.5-1.6-6.4c0,0.4,0.1,0.9,0.1,1.3c0,1.4-0.3,2.9-1,4.8L62.3,49.7L62.3,49.7z M49.6,50.2
		l-6.5-17.3c-0.7,1.7-1.2,3.5-1.2,5.4C42,43.5,45.1,48.1,49.6,50.2L49.6,50.2z M47,30.9l5.2,15.5l2.9-8.7l-2.3-6.9h4.4l5.1,15.5
		l1.4-4.4c0.7-1.7,1-3.1,1-4.3c0-1.7-0.6-2.8-1.1-3.6c-0.7-1.2-1.3-2-1.3-3.1c0-1.2,0.9-2.4,2.3-2.4c0.1,0,0.1,0,0.1,0
		C62.3,26.3,59,25,55.6,25c-4.8,0-8.9,2.4-11.3,6C44.6,31,47,30.9,47,30.9L47,30.9z"/>
</g>
</svg>
