<svg xmlns="http://www.w3.org/2000/svg" viewBox="0 0 54.6 64">
  <path fill="#e91c32" d="M40.6 56.9c.7 1.7.7 4.2 1.8 5.5.1.1.2.1.3.2 6.5-.4 6.8-7.7 3.7-11.1-1.4-1.3-3.5-1.9-6-.8-12.9 5.5-25.2 2-32.7-5.6C3.6 41.1.9 36 .3 30.4-1.9 12.7 12.9 1.5 23 .2c9.2-1.1 17.6 2 23.4 7.9C52.7 14.2 56 23.5 54 34c-.9 4.9-3.8 11-10.4 11-2.7 0-5.3-1.1-7.1-3.1-1.7-1.6-2.8-3.8-3-6.3-.6-9.6 11.9-12.2 11.1-21.9-.1-1.7-.9-3.2-2.1-4.5C38.6 5.7 31 4.3 24 5.7 15.5 7.4 7.2 15.1 5.8 24.4c-1.2 7.5 1.5 16 7.2 21.8 5 4.9 12.3 7.6 21.2 5.6 2.9-.6 5.1-3.3 9.8-2.6 1.7.3 3 1 4 2.1 3.8 3.5 3.2 10.8-1.7 12.4-2.5.9-7.2.2-9.2-2H37c-.3-.1-.5-.3-.7-.6-.8-.7-1.3-1.9-1.2-3.3.1-2 1.4-3.5 2.9-3.4.6 0 1.1.3 1.5.8.5.3.9 1 1.1 1.7"/>
</svg>
