<?xml version="1.0" standalone="no"?>
<!DOCTYPE svg PUBLIC "-//W3C//DTD SVG 1.1//EN" "http://www.w3.org/Graphics/SVG/1.1/DTD/svg11.dtd">
<svg xmlns="http://www.w3.org/2000/svg">
<metadata>Copyright (C) 2019 by original authors @ fontello.com</metadata>
<defs>
<font id="fontello" horiz-adv-x="1000" >
<font-face font-family="fontello" font-weight="400" font-stretch="normal" units-per-em="1000" ascent="850" descent="-150" />
<missing-glyph horiz-adv-x="1000" />
<glyph glyph-name="-angular" unicode="&#xe800;" d="M194 99l105 1 56 140h251l62-141 100-1-293 622-281-621z m376 225h-179l84 197 95-197z m-96 526l-469-166 71-615 398-219 404 223 77 615-481 162z m371-756l-371-205-365 202-66 570 431 153 444-150-73-570z" horiz-adv-x="963" />

<glyph glyph-name="-backbone" unicode="&#xe801;" d="M397 621l-265-154v154l132-77 133 77c-126 74-397 229-397 229l0-460 1-540 396 231 398-231v539l-265 153 133 75 0-153 132-75v461l-398-229z m266-539l-131 76c1 1 87 51 131 77v-153z m-71 267l-195-114-1 0c0 0-247-145-264-155 0 52 0 226 0 226l0-71 132-77 133 78-193 114 195 115v0l265-156-72 40z" horiz-adv-x="795" />

<glyph glyph-name="-magento" unicode="&#xe802;" d="M428 850l-428-263v-474l113-70v482l315 193 314-193v-482l113 70v474l-427 263z m62-302v-559l-62-39-63 39v559l-69-43-68-42v-489l200-124 201 124v488l-69 42-70 44z" horiz-adv-x="855" />

<glyph glyph-name="-psd" unicode="&#xe803;" d="M1048 299c-86 30-113 48-113 81 0 37 30 59 83 59 60 0 120-24 152-41l38 152c-43 22-116 41-198 41-175 0-286-100-286-231-2-85 54-166 200-213 81-29 103-45 103-81 0-37-27-60-94-60-65 0-147 28-189 54l-39-159c54-30 136-51 228-51 202 0 305 97 305 230-1 103-57 173-190 219z m-456 473c-65 53-160 78-297 78-133 0-228-9-295-21v-965h218v350h0c20-4 46-4 74-4 130 0 240 32 314 104 59 55 89 136 89 231 0 96-41 178-103 227z m-301-392c-32 0-54 2-73 5v289c15 5 46 9 90 9 110 0 171-54 171-142 0-102-73-161-188-161z" horiz-adv-x="1238" />

<glyph glyph-name="-github" unicode="&#xe804;" d="M439 228q0 27 14 49t38 22q23 0 37-22t15-49-15-50-37-21q-23 0-38 21t-14 50z m-74-186q-6 0-35 0t-34 1q-143 0-220 73t-76 216q0 88 59 153-5 4 0 63 6 65 25 111 72-7 181-82 38 10 100 10 64 0 100-10 46 32 94 53 46 22 66 25l20 4q20-50 26-111 5-58-1-63 59-65 59-153 0-162-98-234-75-55-198-55-5 0-34-1t-34 0z m1 36q133 0 199 31 68 31 68 130 0 43-28 79t-67 42q-18 3-94-1t-78-4q-21 0-62 3t-65 3-53-6-46-21q-41-37-41-95 0-99 66-130 64-31 198-31l3 0z m-126 221q23 0 36-22t14-49-14-50-36-21q-24 0-39 21t-15 50 15 49 39 22z" horiz-adv-x="729" />

<glyph glyph-name="-mailing" unicode="&#xe805;" d="M524 110c7 0 14 2 19 8 5 5 7 12 7 19 0 7-2 14-7 19-5 5-12 8-19 8-7 0-14-2-19-8-5-5-9-12-9-19 0-7 3-14 9-19 5-5 12-8 19-8z m536 621h-12v36c0 45-37 83-84 83h-881c-46 0-83-37-83-83v-660c0-45 37-83 83-83h294l-40-122h-33c-15 0-27-12-27-26 0-14 12-26 27-26h441c15 0 26 12 26 26 0 14-11 26-26 26h-33l-41 122h293c46 0 84 37 84 83v243h12c39 0 71 32 71 73v235c0 41-32 73-71 73z m-668-829l40 122h182l41-122h-263z m603 205c0-16-13-30-29-30h-883c-16 0-29 14-29 30v94h941v-94z m0 148h-943v512c0 16 14 29 30 29h882c17 0 30-13 30-29v-36h-363c-39 0-71-32-71-73v-235c0-41 32-73 71-73h364v-95z m-400 381l125-95-125-96v191z m465-250h-429c-20 0-36 16-36 35l140 108 78-60c10-7 20-11 32-11 11 0 23 4 32 11l79 60 139-108c0-19-15-35-35-35z m35 59l-125 96 125 95v-191z m-228 40c-6-5-13-8-22-8s-15 3-21 8l-74 56-14 11-140 108v0c0 20 16 35 36 35h429c20 0 35-16 35-35l-229-175z" horiz-adv-x="1131" />

<glyph glyph-name="-wordpress" unicode="&#xe806;" d="M0 350c0-198 115-369 282-451l-239 655c-27-63-43-132-43-204z m508-43l-149-437c45-13 93-20 141-20 58 0 115 10 166 29-1 2-2 5-3 7l-155 421z m329 68c0 62-21 105-41 138-25 42-49 77-49 118 0 46 35 89 84 89 3 0 5 0 6 0-89 81-207 130-337 130-175 0-329-89-418-225 12 0 101 3 101 3l193-584 110 328-90 259h165l188-583 50 166c26 65 38 118 38 161z m102 215c2-16 3-33 3-52 0-51-9-107-38-180l-152-441c148 87 248 249 248 433 0 87-22 169-61 240z" horiz-adv-x="1000" />

<glyph glyph-name="-team" unicode="&#xe807;" d="M1728 59c-72 60-148 102-184 121v97c17 18 28 42 28 67v136c0 87-70 159-158 159h-30c-87 0-157-72-157-159v-136c0-25 9-50 28-67v-47c0-21 15-36 36-36 20 0 36 15 36 36v62c0 13-7 24-16 30-8 5-11 12-11 22v136c0 48 39 87 88 87h29c49 0 86-39 86-87v-136c0-10-5-17-11-22-9-6-15-17-15-30v-131c0-16 9-30 23-38 17-7 105-53 186-120 6-6 11-14 11-23v-94c0-20 16-36 36-36 20 0 36 16 36 36v94c-3 31-17 59-41 79z m-1262 421v-136c0-10-5-17-11-22-10-6-16-17-16-30v-65c0-21 16-36 36-36 20 0 36 15 36 36v50c17 18 28 42 28 67v136c0 87-70 159-158 159h-29c-88 0-158-72-158-159v-136c0-25 9-50 28-67v-97c-34-19-111-61-183-121-25-20-39-50-39-79v-94c0-20 16-36 36-36 20 0 36 16 36 36v94c0 9 5 17 11 23 81 67 169 113 186 120 14 8 23 22 23 38v131c0 13-6 24-15 30-8 5-11 12-11 22v136c0 48 39 87 86 87h29c47 0 85-39 85-87z m837-380c-97 80-198 136-240 158v136c21 22 35 51 35 83v178c-1 108-89 195-195 195h-37c-107 0-194-87-194-195v-177c0-31 12-61 36-83v-136c-42-21-145-78-241-157-29-24-45-58-45-96v-120c0-20 16-36 36-36 20 0 36 16 36 36v120c0 16 6 30 19 39 106 88 221 146 243 157 16 7 25 21 25 39v170c0 12-6 23-15 30-13 7-19 22-19 36v178c0 68 55 123 122 123h37c67 0 122-55 122-123v-177c0-14-8-28-19-36-9-6-15-17-15-29v-172c0-18 9-32 25-39 22-11 137-69 244-157 10-9 18-23 18-39v-120c0-20 16-36 35-36 20 0 36 16 36 36v120c-5 38-21 72-49 94z" horiz-adv-x="1766" />

<glyph glyph-name="-plane" unicode="&#xe808;" d="M137 151c-8 0-16-3-21-9-6-5-9-13-9-21 0-8 3-15 9-21 5-6 13-9 21-9 7 0 15 3 21 9 5 6 9 13 9 21 0 8-4 16-9 21-6 6-14 9-21 9z m152-131c-8 0-16-3-21-9-6-5-9-13-9-21 0-8 3-16 9-21 5-6 13-9 21-9 8 0 15 3 21 9 6 5 9 13 9 21 0 8-3 16-9 21-6 6-13 9-21 9z m165-110c-7 0-15-3-21-9-5-5-9-13-9-21 0-8 4-16 9-21 6-6 14-9 21-9 8 0 16 3 22 9 5 5 8 13 8 21 0 8-3 16-8 21-6 6-14 9-22 9z m-194 771c8 0 16 3 21 9 6 6 9 13 9 21 0 8-3 16-9 21-5 6-13 9-21 9-8 0-16-3-21-9-6-5-9-13-9-21 0-8 3-15 9-21 5-6 13-9 21-9z m219 109c8 0 15 3 21 9 6 5 9 13 9 21 0 8-3 16-9 21-6 6-13 9-21 9-8 0-16-3-21-9-6-5-9-13-9-21 0-8 3-16 9-21 5-6 13-9 21-9z m951-468l-838 487c-9 5-20 5-30 0-9-6-14-16-14-26l0-40-164 0c-16 0-30-13-30-30 0-7 4-15 9-21s14-9 21-9l164 0 0-84-224 0c-16 0-30-13-30-30 0-8 4-16 9-21 6-6 14-9 21-9l224 0 0-9-76-76-388 0c-16 0-30-13-30-30 0-7 4-15 9-21 6-5 14-9 21-9l328 0-84-84-328-1v-60l283 0c0-8 4-15 9-19 4-3 7-6 11-7l175-59-234 0c-16 0-30-13-30-30 0-7 4-15 9-21 6-5 14-9 21-9l304 0 0-84-174 0c-16 0-30-13-30-30 0-8 4-16 9-21 6-6 14-9 21-9l174 0 0-63c0-8 3-16 9-21 1-2 3-4 5-5 9-5 19-7 29-2l838 399c10 4 17 14 17 25-2 13-7 24-16 29z m-822 409l601-350-602 159 1 191z m-60-527l-141 47 141 48 0-95z m31 166c-3 0-8 0-11-1l-146-49 165 163 541-143-549 30z m28-427l0 365 689-36-689-329z m-407 608c8 0 16 3 21 9 6 6 9 13 9 21 0 8-3 16-9 21-5 6-13 9-21 9-8 0-16-3-21-9-6-5-9-13-9-21 0-8 3-15 9-21 5-6 13-9 21-9z" horiz-adv-x="1444" />

<glyph glyph-name="-chart-grow" unicode="&#xe809;" d="M935 850h-862c-40 0-73-33-73-72v-12c0-33 23-61 54-69v-614c0-14 11-25 25-25h400v-52c-32-11-55-41-55-76 0-44 37-80 81-80 44 0 80 36 80 80 0 35-23 65-55 76v52h400c14 0 26 11 26 25v614c30 8 53 36 53 69v12c-1 39-34 72-74 72z m-402-920c0-16-13-30-29-30-16 0-30 14-30 30 0 16 14 29 30 29 16 1 29-13 29-29z m371 179h-800v584h800v-584z m53 657c0-12-10-21-21-21h-863c-12 0-22 10-22 21v12c0 12 10 22 22 22h862c12 0 22-10 22-22v-12z m-783-598c6 0 13 2 18 8l96 97 94-47c12-5 26-2 33 9l96 142 144-95c6-4 14-6 21-3 7 2 13 7 16 14l100 217 20-44c4-10 13-15 23-15 3 0 7 1 10 2 12 6 19 21 12 33l-45 102c-3 6-8 11-14 13-6 3-13 3-20-1l-102-45c-12-6-19-21-12-34 5-12 21-18 33-12l48 22-87-191-140 93c-6 4-13 5-20 4-6-2-12-6-16-11l-97-146-90 45c-10 5-22 3-30-4l-109-110c-10-10-10-25 0-35 5-6 11-8 18-8z" horiz-adv-x="1008" />

<glyph glyph-name="-diamond" unicode="&#xe80a;" d="M993 632c-6 8-17 14-28 14h-593c-11 0-22-5-28-14l-139-203c-8-12-7-29 2-40l436-526c7-8 16-13 26-13 10 0 20 4 26 13l436 526c10 12 11 28 2 40l-140 203z m-612-66l179-122h-263l84 122z m255-589l-332 400h332v-400z m0 497l-154 105h154v-105z m67 105h154l-154-105v105z m0-602v400h331l-331-400z m75 467l179 122 84-122h-263z m-670 0h-74c-18 0-34-15-34-33 0-19 15-34 34-34h74c19 0 34 15 34 34 0 18-15 33-34 33z m1191 0h-74c-18 0-34-15-34-33 0-19 15-34 34-34h74c19 0 34 15 34 34 0 18-14 33-34 33z m-630 265c18 0 34 15 34 34v74c0 18-15 33-34 33-19 0-34-15-34-33v-74c1-19 15-34 34-34z m-395-25c7-7 16-10 24-10 9 0 17 3 24 10 13 13 13 34 0 48l-53 51c-13 14-35 14-47 0-14-13-14-34 0-47l52-52z m766-10c9 0 17 3 24 10l52 52c14 13 14 34 0 47-13 14-34 14-47 0l-53-51c-13-14-13-35 0-48 7-7 15-10 24-10z" horiz-adv-x="1333" />

<glyph glyph-name="-dollar-molecule" unicode="&#xe80b;" d="M558 520v19c0 15-12 27-27 27s-27-12-27-27v-20c-49-13-85-57-85-110 0-53 36-98 85-110v-114c-24 12-46 34-55 44-10 11-27 12-38 3-11-11-12-28-3-39 5-7 46-53 96-67v-20c0-15 12-27 27-27s27 12 27 27v19c49 12 86 57 86 111 0 53-37 98-86 110v117c24-9 47-28 55-37 11-10 28-11 38 0 11 10 12 28 1 38-4 5-43 45-94 56z m-54-163c-18 10-30 29-30 52 0 22 12 42 30 52v-104z m86-121c0-23-13-43-32-53v106c19-10 32-30 32-53z m378-92c-29 0-57-11-77-29l-78 52c26 47 40 99 40 156 0 68-21 131-57 182l53 42c18-12 40-18 63-18 65 0 118 52 118 117 0 65-53 118-118 118-65 0-118-53-118-118 0-21 6-42 17-59l-50-39c-57 59-140 97-230 97-80 0-152-29-208-76l-104 103c10 18 16 38 16 60 0 65-53 118-117 118-65 0-118-53-118-118s53-118 118-118c23 0 45 7 63 19l103-103c-47-56-75-129-75-208 0-68 21-132 58-185l-98-82c-13 6-25 9-40 9-48 1-86-38-86-85 0-48 38-87 86-87 48 0 87 39 87 87 0 13-3 26-9 37l95 80c59-60 140-96 229-96 43 0 83 8 120 23l24-49c-14-13-21-31-21-51 0-40 32-72 72-72 40 0 72 33 72 72 0 40-32 72-72 72 0 0-1 0-1 0l-26 52c32 20 61 45 85 74l76-50c-6-14-9-29-9-45 0-65 53-117 118-117 65 0 118 52 118 117-1 65-54 118-119 118z m-55 565c35 0 63-29 63-63 0-35-29-63-63-63-35 0-63 28-63 63 0 34 28 63 63 63z m-795-40c-35 0-63 29-63 63 0 35 29 63 63 63 35 0 63-29 63-63 0-35-29-63-63-63z m11-723c-18 0-32 15-32 33 0 17 14 32 32 32 18 0 32-15 32-32 0-18-15-33-32-33z m597-5c10 0 18-8 18-18 0-10-8-18-18-18-10 0-18 8-18 18 0 9 8 18 18 18z m-195 113c-148 0-268 120-268 269 0 148 120 268 268 268 148 0 268-120 268-268 0-149-120-269-268-269z m437-91c-35 0-63 28-63 63 0 35 29 63 63 63s63-29 63-63c0-35-28-63-63-63z" horiz-adv-x="1086" />

<glyph glyph-name="-money" unicode="&#xe80c;" d="M543 187v20c47 10 83 54 83 106 0 52-36 95-83 106v116c24-8 47-28 55-36 10-10 26-10 35-1 10 9 10 26 1 36-1 2-41 42-91 53v20c0 14-11 24-25 24-14 0-25-10-25-24v-21c-46-11-81-55-81-105 0-51 35-94 81-105v-115c-24 12-46 34-54 43-9 11-25 12-36 3-11-8-11-24-3-34 5-7 44-52 92-65v-21c0-14 11-25 25-25 15 0 26 11 26 25z m0 179c19-9 33-29 33-53 0-24-14-44-33-54v107z m-50 62c-19 10-32 29-32 52 0 24 13 43 32 53v-105z m-22-483c0 0 1 0 2 0 6 0 12 3 16 7 6 4 9 11 9 18v144c0 13-9 23-21 25-111 18-200 108-216 220-1 13-12 22-25 22h-142c-7 0-14-3-19-8-4-6-7-13-6-20 20-214 189-385 402-408z m-255 386l0 0c12-58 40-110 82-152 42-43 93-72 150-85v-94c-167 28-298 162-326 331h94z m-109-217c-7 11-22 15-34 8-12-7-16-22-9-34 1-1 2-2 2-3 5-8 13-12 21-12 5 0 9 2 13 4 12 7 16 23 9 34l-2 3z m-79 140c14 1 23 14 22 27l0 3c-1 14-13 24-27 23-14-2-24-14-22-27l-1-4c2-13 12-22 25-22 1 0 1 0 3 0z m42-61l-1 3c-5 13-19 20-32 15-13-4-20-18-15-31l1-4c3-10 13-17 23-17 3 1 5 1 8 2 13 5 20 19 16 32z m418-293l-2 0c-14 0-25-11-25-25s11-25 25-25l1 0h0c14 0 25 11 25 25 0 14-10 25-24 25z m-90 8l-3 1c-13 2-26-6-29-20-2-13 6-26 19-29l3-1c2 0 4-1 5-1 12 0 23 9 24 21 4 14-5 27-19 29z m-86 26l-3 2c-13 5-28-1-33-13-5-13 1-27 13-33l3-1c3-2 6-3 10-3 10 0 18 6 23 16 5 12-1 27-13 32z m-151 106c-9 10-25 11-35 2-10-10-10-25-1-36l2-2c5-6 12-8 18-8 6 0 12 2 17 7 10 9 11 25 2 35l-3 2z m71-61l-2 1c-11 8-28 6-35-6-8-12-6-27 6-35l3-2c5-3 9-5 14-5 8 0 15 4 20 11 8 12 5 27-6 36z m286 871c-115 0-224-43-308-122-83-78-133-183-142-297-1-7 2-14 6-19 5-5 12-8 19-8h143c12 0 23 10 25 23 14 132 125 231 257 231 143 0 259-117 259-261 0-131-97-242-226-258-12-1-21-12-21-25v-143c0-7 3-14 7-19 5-4 11-6 17-6 1 0 2 0 3 0 112 9 216 61 293 144 76 84 119 193 119 308 0 249-202 452-451 452z m62-853v95c143 29 247 156 247 305 0 171-139 310-309 310-150 0-277-107-304-253h-94c28 196 198 346 398 346 221 0 401-181 401-403 0-199-147-369-339-400z" horiz-adv-x="969" />

<glyph glyph-name="-people" unicode="&#xe80d;" d="M250 534c86 0 157 71 157 158 0 88-71 158-157 158-86 0-157-70-157-158 0-86 71-158 157-158z m0 263c57 0 104-47 104-105 0-58-47-105-104-105s-105 47-105 105c0 58 48 105 105 105z m486-263c86 0 157 71 157 158-1 88-71 158-157 158-87 0-157-70-157-158 0-86 70-158 157-158z m0 263c57 0 104-47 104-105 0-58-47-105-104-105-58 0-105 47-105 105 0 58 47 105 105 105z m248-465l-26 134c-8 42-48 74-91 74h-57c-7 0-14-3-19-7l-56-56-56 56c-6 5-12 7-19 7h-58c-15 0-31-4-44-12-22 9-47 14-72 14-23 0-44-4-64-11-13 6-26 9-40 9h-58c-7 0-14-3-19-7l-56-56-56 56c-6 5-12 7-19 7h-58c-42 0-82-32-90-74l-25-134c-2-8 1-16 5-22 5-6 13-10 20-10h272c21-85 98-148 189-148 91 0 167 63 188 148h284c8 0 16 4 20 10 5 6 7 14 5 22z m-691 21h-235l21 103c3 17 21 33 39 33h46l67-68c5-5 12-7 19-7s13 3 18 7l67 68h17c-35-35-58-83-59-136z m194-149c-78 0-142 64-142 143 0 79 64 143 142 143 77 0 141-64 141-143 0-79-64-143-141-143z m193 149c-1 53-24 101-60 136h30l66-68c6-5 12-7 19-7 7 0 13 3 18 7l67 68h47c17 0 35-15 39-33l21-103h-247z m85-299c-10 50-58 89-109 89h-74c-6 0-13-3-18-7l-77-78-78 78c-5 5-12 7-19 7h-74c-51 0-99-39-109-89l-34-173c-1-7 1-15 6-21 5-6 12-10 20-10h575c8 0 16 4 20 10 5 6 7 14 5 21l-34 173z m-535-151l29 141c5 25 31 48 57 48h63l88-89c6-6 12-8 19-8 7 0 13 3 18 8l89 89h63c26 0 52-23 57-48l29-141h-512z" horiz-adv-x="985" />

<glyph glyph-name="-sandglass" unicode="&#xe80e;" d="M807 771v6c0 40-32 73-73 73h-661c-40 0-73-33-73-73v-6c0-34 23-62 54-71v-700c-31-9-54-37-54-71v-6c0-40 33-73 73-73h661c41 0 73 33 73 73v6c0 34-23 62-54 71v700c31 9 54 37 54 71z m-51-842v-6c0-12-9-23-22-23h-661c-11 0-22 10-22 23v6c0 12 10 22 22 22h661c13 0 22-10 22-22z m-443 427c-104-38-178-137-178-253v-101h-29v696h29v-88c-1-117 73-216 178-254z m182 0c104 38 178 137 178 253v89h29v-695h-29v100c0 117-74 216-178 253z m-91 35c-95 0-176 61-206 145h412c-31-84-111-145-206-145z m25-71c103-12 184-97 192-201l-169 118c-12 8-23 29-23 43v40z m-45-125c7 5 14 11 20 18 6-7 12-13 19-19l199-137c0 0 1 0 1 0v-55h-438v59l199 134z m-198-72c10 103 90 185 192 197v-40c0-14-11-35-23-43l-169-114z m436 486c0-7 0-15-1-22-1 0-1 0-2 0h-432c0 0 0 0-1 0-1 7-2 15-2 22v89h438v-89z m112 140h-661c-11 0-22 9-22 22v6c0 12 10 23 22 23h661c12 0 22-10 22-23v-6c0-12-9-22-22-22z" horiz-adv-x="807" />

<glyph glyph-name="-screen-code" unicode="&#xe80f;" d="M964 850h-881c-45 0-83-37-83-83v-660c0-45 38-83 83-83h294l-41-121h-34c-14 0-26-12-26-26 0-15 12-27 26-27h442c15 0 26 12 26 27 0 14-11 26-26 26h-33l-41 122h294c45 0 83 38 83 83v659c0 46-38 83-83 83z m-573-947l41 122h182l41-122h-264z m603 204c0-16-13-30-30-30h-881c-17 0-30 14-30 30v95h942v-95z m0 148h-941v512c0 17 13 30 30 30h881c17 0 30-13 30-30v-512z m-471-145c8 0 15 3 19 8 5 5 8 12 8 19s-3 14-8 19c-4 4-11 7-19 7-7 0-14-3-18-7-5-5-8-12-8-19 0-7 3-14 8-19 4-5 11-8 18-8z m204 411c-11 3-22-3-25-14l-45-162c-3-11 3-22 14-25 2-1 4-1 6-1 8 0 17 6 19 15l45 162c3 11-3 22-14 25z m-189-101l57 69c7 9 6 21-3 29-8 7-21 6-28-2l-66-82c-7-7-7-18 0-25l66-82c4-4 9-7 16-7 4 0 9 2 12 5 9 7 10 20 3 29l-57 66z m364 14l-67 81c-7 8-19 9-28 2-9-7-9-20-2-29l56-68-56-68c-7-9-7-21 2-29 4-3 9-5 13-5 5 0 11 2 15 7l67 81c6 9 6 20 0 28z" horiz-adv-x="1047" />

<glyph glyph-name="-screen-idea" unicode="&#xe810;" d="M964 850h-881c-45 0-83-37-83-83v-660c0-45 38-83 83-83h294l-41-121h-34c-14 0-26-12-26-26 0-15 12-27 26-27h442c15 0 26 12 26 27 0 14-11 26-26 26h-33l-41 122h294c45 0 83 38 83 83v659c0 46-38 83-83 83z m-573-947l41 122h182l41-122h-264z m603 204c0-16-13-30-30-30h-881c-17 0-30 14-30 30v95h942v-95z m0 148h-941v512c0 17 13 30 30 30h881c17 0 30-13 30-30v-512z m-471-145c8 0 15 3 19 8 5 5 8 12 8 19s-3 14-8 19c-4 4-11 7-19 7-7 0-14-3-18-7-5-5-8-12-8-19 0-7 3-14 8-19 4-5 11-8 18-8z m-3 571c-63 0-114-50-114-113 0-41 33-76 37-80 6-6 14-19 17-28l10-37c2-10 10-16 19-16h63c9 0 17 6 19 16l10 37c2 9 10 22 17 28 4 4 36 38 36 80-1 63-52 113-114 113z m48-164c-11-11-23-30-27-46 0 0 0-1 0-1l-6-22h-30l-6 22c0 0 0 1 0 1-4 15-16 35-27 46-7 7-25 30-25 51 0 41 33 73 73 73 40 0 72-33 72-73 0-21-18-44-24-51z m-27-128h-44c-11 0-20-9-20-20 0-11 9-21 20-21h44c11 0 21 10 21 21 0 12-9 20-21 20z m-21-52h-1c-11 0-21-10-21-21 0-10 10-20 21-20h1c11 0 21 10 21 20 0 11-10 21-21 21z m-1 369h1c11 0 21 9 21 20 0 11-10 20-21 20h-1c-11 0-21-9-21-20 0-12 10-20 21-20z m-100-15c0 11-10 20-21 20h-1c-11 0-20-9-20-20 0-11 9-21 20-21h1c11 0 21 9 21 21z m223 20h-1c-11 0-21-9-21-20 0-11 10-21 21-21h1c11 0 21 10 21 21 0 11-10 20-21 20z m46-99h-1c-11 0-21-10-21-21 0-10 10-20 21-20h1c11 0 21 10 21 20-1 12-10 21-21 21z m-328 0h-1c-11 0-20-10-20-21 0-10 9-20 20-20h2c11 0 20 10 20 20 0 12-9 21-21 21z" horiz-adv-x="1047" />

<glyph glyph-name="-screen-js" unicode="&#xe811;" d="M964 850h-881c-45 0-83-37-83-83v-660c0-45 38-83 83-83h294l-41-121h-34c-14 0-26-12-26-26 0-15 12-27 26-27h442c15 0 26 12 26 27 0 14-11 26-26 26h-33l-41 122h294c45 0 83 38 83 83v659c0 46-38 83-83 83z m-573-947l41 122h182l41-122h-264z m603 204c0-16-13-30-30-30h-881c-17 0-30 14-30 30v95h942v-95z m0 148h-941v512c0 17 13 30 30 30h881c17 0 30-13 30-30v-512z m-471-145c8 0 15 3 19 8 5 5 8 12 8 19s-3 14-8 19c-4 4-11 7-19 7-7 0-14-3-18-7-5-5-8-12-8-19 0-7 3-14 8-19 4-5 11-8 18-8z m24 267c-13 0-23-9-23-22v-1c0-13 10-23 23-23 13 0 23 10 23 23v1c0 13-10 22-23 22z m168 143c-12 0-20-9-20-21v-100c0-21-10-30-25-30-10 0-17 3-25 9-4 3-7 4-12 4-11 0-20-9-20-19 0-7 3-13 8-16 12-9 27-16 49-16 20 0 36 5 47 17 11 11 17 27 17 49v102c1 12-7 21-19 21z m158-76c-32 8-40 12-40 24v1c0 8 8 16 23 16 13 0 25-4 39-12 3-2 7-3 11-3 10 0 18 7 18 18 0 8-4 14-8 17-17 11-36 16-59 16-37 0-65-22-65-55v-1c0-37 24-47 61-56 31-8 38-14 38-24v-1c0-11-10-17-27-17-18 0-33 6-47 17-2 1-6 4-11 4-11 0-19-8-19-19 0-6 3-13 8-16 20-15 45-22 69-22 40 0 68 21 68 57v1c-1 32-22 45-59 55z" horiz-adv-x="1047" />

<glyph glyph-name="-settings" unicode="&#xe812;" d="M1119 422h-112v47c0 17-13 29-28 29h-49c-9 37-23 73-43 105l35 36c11 11 11 30 0 41l-82 83c-5 6-13 9-21 9-8 0-15-3-20-9l-35-35c-31 20-66 34-102 43v50c0 16-14 29-29 29h-117c-16 0-29-13-29-29v-49c-36-9-71-24-103-43l-34 34c-5 6-12 9-20 9h0c-8 0-16-3-21-9l-82-83c-11-11-11-30 0-41l35-36c-20-32-35-68-43-105h-49c-16 0-28-13-28-29v-47h-113c-16 0-29-13-29-29v-513c0-17 13-29 29-29h1090c16 0 28 13 28 29v512c1 17-12 30-28 30z m-920 18h43c14 0 27 10 29 24 8 46 25 88 52 127 8 12 7 27-3 37l-31 31 41 41 30-31c10-10 26-12 38-3 37 27 79 45 124 53 14 2 24 15 24 29v44h57v-44c0-14 10-26 24-29 46-8 87-25 124-53 12-8 28-6 38 3l30 31 41-41-31-32c-10-10-11-25-3-37 27-38 44-81 52-127 2-14 15-24 29-24h43v-18h-221c-6 82-73 146-155 146s-149-64-155-146h-220v19z m471-18h-192c6 49 46 87 96 87 50 0 90-38 96-87z m420-514h-1031v455h1031v-455z m-933 327h65c16 0 28 14 28 29 0 16-13 29-28 29h-65c-16 0-29-13-29-29 0-16 14-29 29-29z m193 0h64c16 0 29 14 29 29 0 16-13 29-29 29h-64c-17 0-29-13-29-29 0-16 12-29 29-29z m192 0h65c16 0 29 14 29 29 0 16-14 29-29 29h-65c-16 0-29-13-29-29 0-16 13-29 29-29z m192 0h65c16 0 28 14 28 29 0 16-13 29-28 29h-65c-16 0-29-13-29-29 0-16 14-29 29-29z m193 0h64c16 0 29 14 29 29 0 16-13 29-29 29h-64c-17 0-29-13-29-29 0-16 12-29 29-29z m-770-257h65c16 0 28 13 28 29s-13 29-28 29h-65c-16 0-29-13-29-29 0-16 14-29 29-29z m642 59h-450c-16 0-29-14-29-29s13-29 29-29h450c16 0 28 13 28 29s-12 29-28 29z m192 0h-64c-17 0-29-14-29-29s13-29 29-29h64c16 0 29 13 29 29s-13 29-29 29z m-767 99c0-16 14-29 29-29h65c16 0 29 13 29 29 0 16-14 29-29 29h-65c-15 0-29-13-29-29z m193 0c0-16 13-29 29-29h64c17 0 29 13 29 29 0 16-13 29-29 29h-64c-16 0-29-13-29-29z m192 0c0-16 13-29 29-29h64c17 0 29 13 29 29 0 16-13 29-29 29h-64c-16 0-29-13-29-29z m193 0c0-16 13-29 28-29h65c16 0 29 13 29 29 0 16-14 29-29 29h-65c-16 0-28-13-28-29z" horiz-adv-x="1148" />

<glyph glyph-name="-target" unicode="&#xe813;" d="M1005 727c-3 10-13 16-23 16h-81v81c0 10-6 19-16 24-9 4-21 1-27-5l-83-84c-80 54-176 86-279 86-274 0-496-223-496-497 0-274 222-498 496-498 273 0 495 223 495 498 0 98-28 189-77 266l86 86c7 7 10 18 5 27z m-237-47l82 83v-35l-82-82v34z m-272-406c40 0 74 33 74 74 0 8-2 16-4 24l47 46c12-21 19-44 19-69 0-75-61-137-136-137-74 0-135 61-135 137 0 74 61 136 135 136 31 0 60-11 83-28l-45-45c-11 7-24 11-38 11-40 0-74-34-74-74 0-43 34-75 74-75z m119 218c-33 26-73 42-119 42-103 0-186-83-186-187 0-103 83-187 186-187 103 0 187 83 187 187 0 40-13 76-33 107l78 79c41-51 65-116 65-186 0-164-134-297-297-297-164 0-297 133-297 298 0 164 133 298 297 298 75 0 144-29 197-75l-78-79z m326-144c0-246-200-447-445-447-246 0-446 200-446 447 0 246 200 446 446 446 88 0 171-26 241-71l-13-14c-4-4-7-11-7-17v-75c-60 49-137 80-221 80-192-1-348-157-348-349 0-193 156-349 348-349 191 0 347 156 347 349 0 79-27 152-71 211h77c7 0 13 3 18 7l10 11c41-67 64-145 64-229z m-102 262h-35l83 82h34l-82-82z" horiz-adv-x="1007" />

<glyph glyph-name="-chart-wordpress" unicode="&#xe814;" d="M1227 850h-1196c-18 0-31-13-31-30v-940c0-16 13-30 31-30h1197c17 0 31 13 31 30v940c-1 17-14 30-32 30z m-29-939h-1138v678h1137v-678z m0 738h-1138v140h1137v-140z m-1035 41c8 0 16 3 21 8 6 6 9 14 9 22 0 7-3 15-9 21-5 5-13 8-21 8-7 0-15-3-21-8-5-6-8-14-8-21 0-8 3-16 8-22 6-5 14-8 21-8z m133 0c8 0 16 3 21 8 6 6 9 14 9 22 0 7-3 15-9 21-5 5-13 8-21 8-8 0-15-3-21-8-5-6-9-14-9-21 0-8 4-16 9-22 6-5 13-8 21-8z m134 0c8 0 15 3 21 8 5 6 8 14 8 22 0 7-3 15-8 21-6 7-13 10-21 10-8 0-16-3-21-9-6-5-9-13-9-21 0-8 3-15 9-21 4-7 12-10 21-10z m429-456l-62-180c19-6 38-9 59-9 24 0 46 4 68 12-1 1-1 2-1 3l-64 174z m100-161c62 36 104 103 104 179 0 36-10 70-25 100 0-7 1-14 1-21 0-22-4-45-16-75l-64-183z m-194-7l-99 271c-11-26-18-55-18-85 0-82 48-153 117-186z m-41 301l80-242 45 136-36 108h68l78-242 21 69c10 27 15 49 15 67 0 26-9 43-17 57-10 18-20 32-20 49 0 19 14 37 35 37 1 0 2 0 2 0-36 33-86 54-139 54-73 0-136-37-173-93 5-1 41 0 41 0z" horiz-adv-x="1258" />

<glyph glyph-name="mail" unicode="&#xe815;" d="M0 163l0 406q0 51 36 88t89 37l750 0q53 0 89-37t36-88l0-406q0-53-36-89t-89-36l-750 0q-53 0-89 36t-36 89z m63 0q0-26 18-44t44-19l750 0q25 0 44 19t18 44l-244 183-136-101q-26-20-57-20t-57 20l-136 101z m0 39l218 164-218 164 0-328z m0 367l244-184 27-19 129-98q16-12 37-12t37 12l400 301q0 25-18 44t-44 18l-750 0q-25 0-44-18t-18-44z m656-203l218-164 0 328z" horiz-adv-x="1000" />

<glyph glyph-name="phone" unicode="&#xe816;" d="M786 158q0-15-6-39t-12-38q-11-28-68-60-52-28-103-28-15 0-30 2t-32 7-26 8-31 11-28 10q-54 20-97 47-72 44-148 120t-120 148q-27 43-46 97-2 5-10 28t-12 31-8 26-7 32-2 29q0 52 29 104 31 57 59 68 14 6 38 12t39 6q8 0 12-2 10-3 30-42 6-11 16-31t20-35 17-30q2-2 10-14t12-20 4-16q0-11-16-27t-35-31-34-30-16-25q0-5 3-13t4-11 8-14 7-10q42-77 97-132t131-97q1 0 10-6t14-8 11-5 13-2q10 0 25 16t30 34 31 35 28 16q7 0 15-4t20-12 14-10q14-8 30-17t36-20 30-17q39-19 42-29 2-4 2-12z" horiz-adv-x="785.7" />

<glyph glyph-name="comment" unicode="&#xe817;" d="M781 662l-625 0q-21 0-37-15t-15-36l0-365q0-21 15-37t37-16l157 0 0-8 8 8 460 0q22 0 37 16t16 37l0 365q0 21-16 36t-37 15z m0 105q65 0 111-46t46-110l0-365q0-65-46-111t-111-45l-416 0-156-157 0 157-53 0q-65 0-110 45t-46 111l0 365q0 65 46 110t110 46l625 0z" horiz-adv-x="938" />

<glyph glyph-name="-react" unicode="&#xe818;" d="M838 497c-17 6-35 12-54 18 5 19 9 37 12 55 17 103-1 176-51 204-15 9-32 13-50 13-55 0-125-41-195-109-70 68-140 109-194 109-19 0-36-4-50-13-50-29-68-101-52-204 3-18 7-36 12-55-19-6-37-11-54-18-98-38-151-89-151-147s54-109 151-147c17-6 35-12 54-18-5-19-9-37-12-55-16-103 2-176 52-204 14-9 31-13 50-13 55 0 125 41 194 109 70-68 140-109 195-109 18 0 35 4 50 13 50 29 68 101 51 204-3 18-7 36-12 55 19 6 37 11 54 18 98 38 151 89 151 147s-53 109-151 147z m-115 238c32-19 43-76 29-158-2-17-6-34-11-52-40 9-83 16-128 20-27 37-54 71-82 101 58 57 117 96 164 96 11 0 20-2 28-7z m-88-463c-14-25-30-50-47-75-29-2-58-3-88-3-30 0-59 1-87 3-18 25-33 50-47 75-15 26-29 52-42 78 13 26 27 52 42 78 14 25 30 50 47 75 29 3 58 3 88 3 30 0 59 0 87-3 18-25 33-50 47-75 15-26 29-52 42-78-14-26-27-52-42-78z m65 26c12-28 21-54 30-81-27-6-55-11-85-15 10 15 20 31 28 47 10 17 18 33 27 49z m-200-212c-19 20-37 42-54 65 18-1 36-2 54-2 18 0 36 1 54 2-17-23-35-45-54-65z m-145 117c-30 4-58 9-85 15 9 26 18 53 30 80 9-15 17-32 27-47 9-17 18-32 28-48z m-55 199c-12 28-21 54-30 81 27 6 55 11 85 15-10-15-20-31-28-47-10-17-18-33-27-49z m200 212c19-20 37-42 54-65-18 1-36 2-54 2-18 0-36-1-54-2 17 23 35 45 54 65z m173-164l-28 47c30-4 58-9 85-15-9-26-18-53-30-80-9 16-17 32-27 48z m-425 127c-14 82-3 139 29 158 8 5 18 7 28 7 47 0 105-38 164-96-28-30-55-64-81-101-46-4-89-11-129-20-5 18-8 35-11 52z m-193-227c0 37 44 76 122 105 16 6 33 11 50 16 13-39 29-80 47-122-18-41-35-82-47-121-107 31-172 78-172 122z m222-385c-32 19-43 76-29 158 2 17 6 34 11 52 40-9 83-16 129-19 26-38 53-72 81-102-58-57-117-96-164-96-10 0-20 2-28 7z m475 158c14-82 3-139-29-158-8-5-17-7-28-7-47 0-105 38-164 96 28 30 55 64 82 102 45 3 88 10 128 19 5-18 8-35 11-52z m71 122c-16-6-33-11-50-16-13 39-28 80-47 122 19 41 35 82 47 121 108-31 172-78 172-122 0-37-45-76-122-105z" horiz-adv-x="1000" />

<glyph glyph-name="london" unicode="&#xe819;" d="M612 270h-17c-1 13-5 25-10 36l15 9c3 2 4 6 2 9-1 3-5 4-8 2l-15-9c-7 11-16 20-26 27l8 15c2 3 1 6-2 8s-7 1-9-2l-8-15c-11 5-23 8-36 9v17c0 4-3 6-6 6s-6-2-6-6v-17c-13 0-25-4-36-9l-9 15c-2 3-6 4-9 2-3-2-4-5-2-8l9-15c-11-7-20-16-27-27l-15 9c-3 2-7 1-8-2-2-3-1-7 2-9l15-9c-5-11-9-23-9-36h-18c-3 0-6-3-6-6 0-4 3-7 6-7h18c1-12 4-24 9-35l-15-9c-3-1-4-5-2-8 1-2 3-3 5-3 1 0 2 0 3 1l15 8c7-10 16-19 27-26l-9-15c-2-3-1-7 2-9 1 0 2 0 3 0 2 0 5 1 6 3l9 15c11-6 23-9 36-10v-18c0-3 2-6 6-6s6 3 6 6v18c13 1 25 5 36 10l8-15c2-2 4-3 6-3 1 0 2 0 3 0 3 2 4 6 2 9l-8 15c10 7 19 16 26 26l15-8c1-1 2-1 3-1 2 0 4 1 5 3 2 3 1 7-2 8l-15 9c5 11 9 23 10 35h17c4 0 7 3 7 7 0 3-3 6-7 6z m-112-89c-46 0-83 38-83 83 0 46 37 83 83 83s82-37 82-83c0-45-37-83-82-83z m37 89h-31v44c0 3-3 6-6 6s-6-3-6-6v-50c0-4 2-7 6-7h37c4 0 7 3 7 7 0 3-3 6-7 6z m-37 238c1 0 3 1 4 2 1 1 2 3 2 4 0 2-1 4-2 5-2 2-6 2-9 0-1-1-2-3-2-5 0-1 1-3 2-4 1-1 3-2 5-2z m-50 0c1 0 3 1 4 2 1 1 2 3 2 4 0 2-1 4-2 5-2 2-6 2-9 0-1-1-2-3-2-5 0-1 1-3 2-4 1-1 3-2 5-2z m25 25c1 0 3 1 4 2 1 1 2 3 2 4 0 2-1 4-2 5-2 2-7 2-9 0-1-1-2-3-2-5 0-1 1-3 2-4 1-1 3-2 5-2z m50 0c1 0 3 1 4 2 1 1 2 3 2 4 0 2-1 4-2 5-2 2-7 2-9 0-1-1-2-3-2-5 0-1 1-3 2-4 1-1 3-2 5-2z m25-25c1 0 3 1 4 2 1 1 2 3 2 4 0 2-1 4-2 5-2 2-7 2-9 0-1-1-2-3-2-5 0-1 1-3 2-4 1-1 3-2 5-2z m31 109v22c0 3-3 6-6 6h0 0 0c-30 0-58 89-69 145-1 3-3 5-6 5-3 0-6-2-7-5-10-56-39-145-68-145-4 0-6-3-6-6v-22c-160-37-280-180-280-351 0-199 162-361 361-361s361 162 361 361c0 171-120 314-280 351z m-81 143c8-34 25-90 49-115h-43v19c0 3-3 6-6 6s-6-3-6-6v-19h-44c24 25 41 81 50 115z m-69-128h138v-50h-25v19c0 4-3 6-7 6s-6-2-6-6v-19h-25v19c0 4-3 6-6 6s-6-2-6-6v-19h-25v19c0 4-3 6-7 6s-6-2-6-6v-19h-25v50z m0-62h138c3-29 24-70 33-88h-204c9 18 30 59 33 88z m-279-304c0 5 0 9 0 14 1 0 2 0 3 0 20 0 37-14 42-33 0-2 2-4 4-5 2 0 4 0 6 1 6 5 13 7 20 7 18 0 34-15 34-34 0 0-1-1-1-1 0-1 0-1 0-1 0-4 3-7 7-7h76c14 0 25-11 25-25 0-13-11-25-25-25h-174c-11 35-17 71-17 109z m204-119c14 5 25 19 25 35s-11 30-25 36v189h288v-287h-288v27z m250 273h-25v19c0 3-3 6-6 6s-6-3-6-6v-19h-25v19c0 3-3 6-7 6s-6-3-6-6v-19h-25v19c0 3-3 6-6 6s-6-3-6-6v-19h-25v19c0 3-3 6-7 6s-6-3-6-6v-19h-25v19c0 3-3 6-6 6s-6-3-6-6v-19h-25v50h212v-50z m-187 184v-28c0-20-15-53-25-74v37c0 3-3 6-7 6s-6-3-6-6v-119h-31c-4 0-6-3-6-6v-194c-1 0-1 0-1 0h-70c-2 24-22 43-46 43-7 0-14-2-21-5-8 20-28 34-51 34-1 0-1 0-2 0 12 152 121 277 266 312z m-38-665c-5 2-10 4-16 6h16v-6z m0 56h-19c-3 0-6-3-6-6 0-4 3-7 6-7h19v-25h-19c-3 0-6-3-6-6 0-1 0-2 1-2-85 38-151 109-183 196h169c0 0 0 0 1 0v-31c0-4 2-7 6-7h6v-31c0-3 3-6 6-6h19v-75z m38-68c-9 2-17 5-25 7v0 11h25v-18z m0 30h-25v25h25v-25z m0 38h-25v75h25v-75z m37-74c-8 1-17 2-25 4v20h25v-24z m0 36h-25v25h25v-25z m0 38h-25v75h25v-75z m38-77c-9 0-17 0-25 1v26h25v-27z m0 39h-25v25h25v-25z m0 38h-25v75h25v-75z m-125 87v25h262v-25h-262z m162-163c-8-1-17-1-25-1v27h25v-26z m0 38h-25v25h25v-25z m0 38h-25v75h25v-75z m38-71c-9-1-17-2-25-4v25h25v-21z m0 33h-25v25h25v-25z m0 38h-25v75h25v-75z m37-61c-8-2-16-5-25-7v18h25v-11z m0 23h-25v25h25v-25z m0 38h-25v75h25v-75z m13-57v7h16c-6-2-11-5-16-7z m24 11c0 0 1 1 1 2 0 3-3 6-7 6h-18v25h18c4 0 7 3 7 7 0 3-3 6-7 6h-18v75h18c4 0 7 3 7 6v31h6c3 0 6 3 6 7v118h125c21 0 37 17 37 38s-16 37-37 37h-34c2 6 3 11 3 17 0 31-25 56-56 56-15 0-28-6-38-16v50c0 3-3 6-6 6h-31v119c0 3-3 6-7 6s-6-3-6-6v-37c-11 21-25 54-25 74v28c153-36 267-174 267-338 0-141-84-263-205-317z m89 349c1-2 3-3 6-3h43c14 0 25-11 25-25 0-14-11-25-25-25h-125v99c7 14 22 23 38 23 24 0 43-19 43-43 0-7-2-14-5-20-1-2-1-4 0-6z" horiz-adv-x="1000" />

<glyph glyph-name="user" unicode="&#xe81a;" d="M736 128q204-72 204-122l0-106-940 0 0 106q0 50 204 122 94 34 128 69t34 95q0 22-22 49t-32 73q-2 12-9 18t-14 8-14 17-9 43q0 16 5 26t9 12l4 4q-8 50-12 88-4 54 41 112t157 58 158-58 40-112l-12-88q18-8 18-42-2-28-9-43t-14-17-14-8-9-18q-8-48-31-74t-23-48q0-60 35-95t127-69z" horiz-adv-x="940" />

<glyph glyph-name="stockholm" unicode="&#xe81b;" d="M531 625c0 1 0 1 0 2 0 15-11 27-25 30v75h46l-20-41c-1-2-1-4 0-6 1-2 3-3 5-3h63c2 0 4 2 5 4l25 50c1 2 1 4 0 6s-3 3-5 3h-53l21 41c1 2 1 4-1 6s-3 3-5 3h-87c-4 0-6-3-6-6v-50-82c-15-2-26-15-26-30 0-1 1-2 1-2-185-16-330-171-330-359 0-199 162-361 361-361 199 0 361 162 361 361 0 188-146 343-330 359z m83 107l-18-37h-49l19 37h48z m-108 50h71l-19-37h-52v37z m300-675v38h20c-4-13-10-26-16-38h-4z m13 126c0 2 0 2 0 3 0 11 8 19 19 19 3 0 7-1 10-3-2-33-7-65-17-95h-25v63h8c2 0 4 1 5 2 2 2 2 3 2 5-1 3-1 5-2 6z m31 33c-6 1-8 2-12 2-17 0-31-14-31-32 0-1-1-3 0-4h-7c-4 0-6-2-6-6v-69h-88v69c0 4-3 6-6 6h-19v32c0 3-3 6-6 6s-6-3-6-6v-32h-19c-4 0-6-2-6-6v-19h-19c-10 0-19 9-19 20v99c0 4-3 6-6 6h-19c-1 14-6 27-12 38h263c10-33 18-68 18-104 0 0 0 0 0 0z m-56-121v-38h-25v38h25z m-38 0v-38h-25v38h25z m-100 12v63h38v-63h-38z m25-12v-38h-25v38h25z m13 0h25v-38h-25v38z m-150 12v94c0 4-3 6-7 6h-75c-3 0-6-2-6-6v-94h-100v38h19c17 0 31 15 31 32v93h19c3 0 6 3 6 6 0 39 29 69 69 69s68-30 68-69c0-3 3-6 7-6h19v-93c0-18 13-32 31-32h19v-38h-100z m100-12v-38h-25v38h25z m-38 0v-38h-25v38h25z m-37 0v-38h-25v38h25z m-100 12v88h62v-88h-62z m62-12v-38h-25v38h25z m-37 0v-38h-25v38h25z m-38 0v-38h-25v38h25z m-37 0v-38h-25v38h25z m-38 0v-38h-25v38h25z m144 337h-50c-4 0-6-2-6-6v-74c-10-4-18-9-25-16v121h112v-121c-7 6-16 12-25 15v75c0 4-3 6-6 6z m-6-12v-65c-6 2-13 2-19 2-7 0-13 0-19-2v65h38z m-77 50l-9 25h133l-8-25h-116z m139 29c0 0 0 0 0 0 0 1 0 1 0 1 0 0 0 0 0 1 0 0 0 0 0 0h0c0 3-2 5-4 6 0 0-34 15-55 49 2 2 4 4 5 7 139-11 256-104 301-231h-259v132l12 35z m-81 97c10 0 18-9 18-19s-8-19-18-19-19 8-19 19 8 19 19 19z m-13-48c4-1 8-2 13-2s8 1 12 2c12-18 28-32 40-41h-105c13 9 28 23 40 41z m-56-84v-132h-259c45 127 161 219 300 231 1-3 3-5 5-8-20-33-53-47-55-48-2-1-4-3-4-6h0c0 0 0 0 0 0 0-1 0-1 0-1 1 0 1 0 1-1 0 0 0 0 0 0l12-35z m-263-144h262c-6-11-10-24-11-38h-19c-4 0-6-2-6-6v-99c0-11-9-20-19-20h-19v19c0 4-3 6-6 6h-19v32c0 3-3 6-6 6s-6-3-6-6v-32h-19c-4 0-6-2-6-6v-69h-88v69c0 4-3 6-6 6h-7c1 1 1 3 1 4 0 17-14 32-31 32-4 0-8-1-11-3 0 1 0 1 0 1 0 36 6 71 16 104z m138-213v63h38v-63h-38z m38-12v-38h-25v38h25z m-38 0v-38h-25v38h25z m-37 0v-38h-25v38h25z m-38 0v-38h-25v38h25z m-41-38c-6 12-12 25-16 38h20v-38h-4z m4 50h-25c-9 30-15 62-17 95 3 2 7 3 11 3 10 0 18-8 18-19 0-1 0-1 0-3-1-1-1-3-2-6 0-2 1-3 2-5s3-2 5-2h8v-63z m137-195v0c-22 12-43 27-62 44v0 51h62v-95z m88-35c-13 3-26 7-38 12v13c0 10 8 18 19 18s19-8 19-18v-25z m50-8v138h62v-138c-10-1-21-1-31-1-11 0-21 0-31 1z m150 19c-13-4-25-8-38-11v25c0 10 8 18 19 18s19-8 19-18v-14z m112 68c-19-17-40-32-62-45v1 95h62v-51z m13 11v47c0 3-3 6-7 6h-75c-3 0-6-3-6-6v-109c-8-4-16-8-25-12v9c0 17-14 31-31 31-17 0-31-14-31-31v-28c-9-1-17-2-25-4v144c0 3-3 6-7 6h-75c-3 0-6-3-6-6v-143c-8 1-17 2-25 4v27c0 17-14 31-31 31-17 0-31-14-31-31v-8c-9 3-17 7-25 11v109c0 3-3 6-7 6h-75c-3 0-6-3-6-6v-46c-23 23-43 49-59 77h606c-16-29-36-55-59-78z m-244 354c-25 0-44-20-44-44 0-24 19-44 44-44 24 0 43 20 43 44 0 24-19 44-43 44z m0-75c-18 0-32 14-32 31 0 17 14 31 32 31 17 0 31-14 31-31 0-17-14-31-31-31z m125-226h-50c-4 0-6-3-6-6v-50c0-4 2-7 6-7h50c3 0 6 3 6 7v50c0 3-3 6-6 6z m-6-50h-38v37h38v-37z m-194 50h-50c-4 0-6-3-6-6v-50c0-4 2-7 6-7h50c3 0 6 3 6 7v50c0 3-3 6-6 6z m-6-50h-38v37h38v-37z" horiz-adv-x="1000" />

<glyph glyph-name="video_1" unicode="&#xe81c;" d="M984 575c-14 85-42 143-83 175-55 66-177 94-400 94-223 0-345-28-400-94-41-32-69-90-82-175-11-61-16-143-16-230s5-168 16-230c13-85 41-143 82-175 55-66 177-93 400-93s345 27 400 93c41 32 69 90 83 175 10 62 15 144 15 230 0 87-5 169-15 230z m-101-412c-11-67-33-113-65-139-44-52-141-73-317-73s-273 21-317 73c-32 26-54 72-65 139-8 49-12 114-12 182 0 69 4 133 12 182 11 67 33 113 65 139 44 52 141 73 317 73 176 0 273-21 317-73 32-26 54-72 65-139 8-49 12-113 12-182 0-68-4-133-12-182z m-542 13c-18 113-18 225 0 337 4 29 33 46 60 37 117-38 221-95 312-170 22-18 23-52 1-71-89-75-193-132-313-170-27-9-55 9-60 37z" horiz-adv-x="1000" />

<glyph glyph-name="jest" unicode="&#xe81d;" d="M848 358c0 52-42 93-93 93-3 0-7 0-10 0l128 376h-543l128-376a93 93 0 0 1-6 0c-51 0-93-41-93-93 0-41 27-76 65-88-20-35-45-66-73-92-39-37-83-64-131-81-56 29-83 94-59 151 3 6 6 12 8 19 41 10 72 46 72 90 0 52-42 93-93 93-51 0-93-41-93-93 0-31 16-59 40-76-23-52-57-107-68-170-12-77 0-158 66-203 154-107 320 66 496 109 63 16 133 13 189 46 42 24 70 65 78 110 8 45-4 89-30 126a93 93 0 0 1 22 59z m-303 0l0 0c0 34-18 63-45 80l102 205 101-207c-25-17-41-46-41-78 0-1 0-1 0-2l-117 2z m326 0c0 57-41 104-95 114l129 378h-606l128-379c-52-11-91-58-91-113 0-41 22-78 55-98-16-24-34-46-56-66-34-32-72-56-113-72-41 25-58 74-40 117l1 3 3 6c45 16 78 59 78 109 0 64-52 116-116 116s-116-52-116-116c0-32 14-61 35-82a1949 1949 0 0 0-12-25c-20-40-42-85-50-136-17-100 10-180 75-225 40-27 80-38 120-38 76 0 153 38 229 76 54 26 110 54 165 68 21 5 42 8 64 11 45 7 91 13 132 37 47 27 79 73 88 126 8 45-1 91-24 129a115 115 0 0 1 17 60z m-46 0c0-39-31-70-70-70-39 0-70 31-70 70s31 70 70 70c39 0 70-31 70-70z m16 447l-113-334a114 114 0 0 1-14-5l-112 228-112-226a114 114 0 0 1-15 4l-113 333h479z m-389-377c39 0 70-31 70-70 0-39-31-70-70-70-39 0-70 31-70 70s31 70 70 70z m-304 0c39 0 70-32 70-71 0-38-31-70-70-70-39 0-70 32-70 70s31 71 70 71z m686-251c-7-40-32-74-67-95-33-19-73-25-115-31-23-3-46-6-69-12-60-15-118-44-175-72-113-56-210-104-302-41-67 47-64 134-56 181 7 44 27 84 46 123a2646 2646 0 0 1 9 20 115 115 0 0 1 30-7c-19-64 11-134 75-167l9-4 9 3c51 18 97 47 138 86 27 25 50 53 69 83a116 116 0 0 1 17-2c64 0 116 52 116 116 0 34-15 65-39 87l73 147 73-150c-22-21-36-51-36-84 0-64 52-116 116-116a115 115 0 0 1 66 21c13-26 18-56 13-86z" horiz-adv-x="905" />

<glyph glyph-name="react-native" unicode="&#xe82c;" d="M714-92v13c-28 14-58 34-89 61-10 8-19 17-28 26 32 35 63 75 94 119 8 1 16 2 24 2v125c-16-28-33-54-50-81-35-2-69-3-103-3-35 0-69 1-102 3-19 28-38 57-55 87-17 29-33 59-47 90 14 31 30 61 47 90 17 30 35 59 55 87 33 3 67 4 102 4s69-1 103-4c18-28 37-57 53-86 5-8 9-15 13-22 10 13 23 23 39 29-3 6-7 11-10 17-11 19-22 38-34 56 36-4 70-10 102-18-5-17-11-33-17-50h50c5 13 9 26 13 38 12-3 23-7 34-10 25-9 47-18 67-28h88c-34 28-82 53-140 73-12 4-24 8-36 12 2 8 4 16 6 24 27 133 9 240-52 275-59 34-155-1-251-85-10-9-19-17-29-26l-18 17c-101 90-203 128-264 93-58-34-75-135-51-261 3-12 5-25 8-37-14-4-28-8-41-13-119-41-195-106-195-174 0-69 82-139 205-181 10-4 20-7 31-10-4-13-7-27-9-40-24-124-5-222 53-256 60-34 161 1 260 88 8 7 16 14 23 21 10-9 20-19 30-27 47-40 93-68 134-83-8 13-13 28-13 45z m-351 328c12-20 23-39 35-57-37 4-71 9-103 16 10 32 22 66 36 99 11-20 21-39 32-58z m0 229c-11-19-21-39-31-58-14 33-26 66-36 97 32 7 66 14 102 18-12-19-24-38-35-57z m259 250c82 72 160 101 195 81 38-22 52-110 29-224-2-7-3-15-5-22-47 11-98 18-150 23-31 44-63 84-95 119 8 8 17 16 26 23z m-60-57c22-25 44-51 66-80-44 2-88 2-133 0 22 29 45 55 67 80z m-258 136c37 22 120-9 208-86 6-6 11-11 17-16-33-35-65-75-96-118-53-5-104-13-150-24-3 12-5 23-8 35-21 108-7 189 29 209z m-55-587c-9 2-19 5-28 8-55 19-100 43-131 70-28 24-42 48-42 67 0 41 61 93 163 128 12 5 25 9 38 13 14-46 33-94 55-142-22-50-41-98-55-144z m259-219c-43-38-87-65-125-79-35-12-63-13-79-3-36 21-50 99-31 205 2 13 6 25 9 38 46-10 97-18 151-22 31-44 64-84 96-119-6-7-13-14-21-20z m55 54c-23 25-45 52-67 81 21-1 43-1 65-1 23 0 46 0 68 1-21-30-44-57-66-81z m485-191h-226c-35 0-64 28-64 63v438c0 34 29 63 64 63h226c35 0 64-29 64-63v-438c0-34-29-63-64-63z m-226 519c-10 0-18-8-18-18v-438c0-10 8-18 18-18h226c10 0 18 8 18 18v438c0 9-8 18-18 18h-226z m143-55h-56c-9 0-16 7-16 15v1c0 9 7 15 16 15h56c8 0 15-7 15-15v-1c0-8-7-15-15-15z" horiz-adv-x="1123" />

<glyph glyph-name="nodejs" unicode="&#xe866;" d="M413 837c25 14 57 15 82 0 124-70 248-140 372-210 23-13 39-39 39-66v-422c0-28-17-54-42-67-124-70-247-140-371-210-25-14-58-13-82 3-37 21-75 43-112 64-7 5-16 8-21 15 5 7 13 8 20 10 15 5 30 13 44 21 4 2 8 1 11-1 32-18 63-37 95-55 7-4 14 2 20 5 121 68 243 137 364 206 5 2 7 6 7 11 0 140 0 279 0 418 0 5-3 11-8 13-123 69-247 139-370 208a13 13 0 0 1-14 0c-124-69-247-139-370-208-5-2-8-7-8-13 0-139 0-278 0-418a12 12 0 0 1 7-11c33-19 66-38 99-56 18-10 41-16 61-8 18 6 31 24 31 44 0 138 0 276 0 415-1 6 5 11 11 10 16 0 32 1 48 0 6 0 11-6 10-12 0-140 0-279 0-418 0-37-15-78-50-96-42-22-94-17-136 4-36 18-71 39-106 59-25 12-42 39-42 67v422c0 28 16 54 40 67 124 70 248 140 371 209z m108-292c54 4 112 2 160-24 38-21 59-63 59-105-1-6-7-9-12-9-16 0-31 0-47 1-7-1-10 5-11 11-5 20-16 40-34 50-29 14-63 13-94 13-23-1-48-3-67-17-15-10-20-31-15-47 6-12 19-16 31-20 65-17 133-15 197-37 27-9 52-27 61-55 12-37 7-81-19-111-22-24-53-38-84-45-41-9-84-9-126-5-39 4-80 15-111 42-26 22-39 57-37 91 0 6 6 10 11 10 16 0 32 0 47 0 7 0 11-5 12-11 3-19 10-39 26-51 32-20 73-19 109-19 31 1 65 1 90 21 13 12 17 31 13 48-4 13-18 20-31 24-64 21-134 13-197 36-26 9-51 26-61 53-14 37-7 84 22 113 28 28 69 39 108 43z" horiz-adv-x="908" />

<glyph glyph-name="international" unicode="&#xe867;" d="M484 850c-267 0-484-217-484-484s217-485 484-485 485 217 485 485-217 484-485 484z m422-469h-188c-2 70-14 136-36 196a510 510 0 0 1 117 69 420 420 0 0 0 107-265z m-439-436c-52 43-95 99-127 164a484 484 0 0 0 129 22v-186l-2 0z m35 842c59-49 107-115 139-192-44-15-92-24-141-25v217l2 0z m52-6a421 421 0 0 0 224-113 478 478 0 0 0-108-62c-28 67-68 127-116 175z m-85 6v-217a484 484 0 0 0-141 25c32 77 80 143 139 192l2 0z m-171-181a479 479 0 0 0-107 62 421 421 0 0 0 224 113c-48-48-88-108-117-175z m18-40c48-16 99-26 153-28v-157h-187c2 66 13 128 34 185z m153-216v-188a513 513 0 0 1-142-24 587 587 0 0 0-45 212h187z m-54-400a420 420 0 0 0-204 95 475 475 0 0 0 99 53 541 541 0 0 1 105-148z m85-6v186c45-1 88-8 129-21-32-65-75-121-127-164l-2-1z m159 154a479 479 0 0 0 99-53 420 420 0 0 0-204-95 542 542 0 0 1 105 148z m-17 40a513 513 0 0 1-142 24v188h187a588 588 0 0 0-45-212z m-142 243v157a514 514 0 0 1 153 28c21-57 32-119 34-185h-187z m-330 265a511 511 0 0 1 117-69c-22-60-35-126-36-196h-188a420 420 0 0 0 107 265z m-107-296h188a616 616 0 0 1 47-223 507 507 0 0 1-111-60 421 421 0 0 0-124 283z m719-283a508 508 0 0 1-111 60 616 616 0 0 1 47 223h188a421 421 0 0 0-124-283z" horiz-adv-x="1000" />

<glyph glyph-name="review" unicode="&#xe868;" d="M161 29a54 54 0 1 1-107 0 54 54 0 0 1 107 0z m0 642a54 54 0 1 1-107 0 54 54 0 0 1 107 0z m357-71a54 54 0 1 1-107 0 54 54 0 0 1 107 0z m53 0c0-40-21-74-53-93-2-201-145-246-239-276-89-28-118-41-118-95v-15c32-18 53-53 53-92a107 107 0 0 0-214 0c0 39 22 74 54 92v458a107 107 0 0 0-54 92 107 107 0 0 0 214 0c0-39-21-74-53-92v-277c28 13 58 23 86 31 104 33 163 58 164 174a107 107 0 0 0-54 93 107 107 0 0 0 214 0z" horiz-adv-x="571" />

<glyph glyph-name="webpack" unicode="&#xe870;" d="M500 850l442-250v-500l-442-250-442 250v500z m363-733l-348-197v154l217 119 131-76z m24 22v412l-128-74v-264l128-74z m-751-22l348-197v154l-217 119-131-76z m-24 22v412l127-74v-264l-127-74z m15 439l357 202v-149l-229-125-2-1-126 73z m745 0l-357 202v-149l229-125 1-1 127 73z m-388-469l-214 117v234l214-124v-227z m31 0l214 117v234l-214-124v-227z m-16 236z m-215 142l215 118 215-118-215-124-215 124z" horiz-adv-x="1000" />

<glyph glyph-name="-facebook" unicode="&#xf052;" d="M0 350h97v-469h193v469h130l17 161h-146v81q0 18 2 28t8 20 19 13 35 4h81v161h-129q-112 0-161-53t-49-157v-97h-97v-161z" horiz-adv-x="437.5" />

<glyph glyph-name="-linkedin" unicode="&#xf05c;" d="M0 57v586q0 72 52 124t124 51h585q73 0 125-51t51-124v-586q0-73-51-124t-125-52h-585q-73 0-124 52t-52 124z m156 0q0-8 6-14t14-6h117q8 0 14 6t5 14v390q0 8-5 14t-14 6h-117q-8 0-14-6t-6-14v-390z m0 529q0-31 22-53t53-22q33 0 54 22 22 22 22 53t-22 54-54 22-53-22-22-54z m195-529q0-8 10-14t18-6h111q7 0 12 6t6 14v213q0 85 69 85 29 0 38-13t10-45v-240q0-8 7-14t16-6h113q8 0 14 6t6 14v265q0 77-44 117t-125 41q-55 0-96-28-8-5-8-7 0 22-21 22h-108q-10 0-19-5t-9-12v-393z" horiz-adv-x="937.5" />

<glyph glyph-name="user-male" unicode="&#xf062;" d="M0-119q0 9 1 23t11 44 26 48q17 17 65 37t108 42 90 36q36 18 55 54t20 73q0 27-31 62-18 21-31 59-44 18-44 72 0 41 15 59-4 27-9 80-1 8-2 21t2 44 15 53q19 33 47 45t47 5q1 0 1 0 1 5 4 13t14 22 25 20q8 4 25 6t43 1 52-8 54-21 49-38 35-59 15-84q0-10 0-20-4-45-9-80 14-18 14-59 0-54-44-72-13-38-31-59-31-35-31-62 0-38 20-73t55-54q29-15 90-36t109-42 64-37q18-17 27-46t10-49l1-20h-977z" horiz-adv-x="977.5" />

<glyph glyph-name="building" unicode="&#xf0f7;" d="M214 118v-36q0-7-5-12t-13-6h-35q-7 0-13 6t-5 12v36q0 7 5 12t13 6h35q8 0 13-6t5-12z m0 143v-36q0-7-5-13t-13-5h-35q-7 0-13 5t-5 13v36q0 7 5 12t13 6h35q8 0 13-6t5-12z m143 0v-36q0-7-5-13t-13-5h-35q-8 0-13 5t-5 13v36q0 7 5 12t13 6h35q8 0 13-6t5-12z m-143 143v-36q0-7-5-13t-13-5h-35q-7 0-13 5t-5 13v36q0 7 5 12t13 5h35q8 0 13-5t5-12z m429-286v-36q0-7-5-12t-13-6h-36q-7 0-12 6t-6 12v36q0 7 6 12t12 6h36q7 0 13-6t5-12z m-143 143v-36q0-7-5-13t-13-5h-36q-7 0-12 5t-5 13v36q0 7 5 12t12 6h36q7 0 13-6t5-12z m-143 143v-36q0-7-5-13t-13-5h-35q-8 0-13 5t-5 13v36q0 7 5 12t13 5h35q8 0 13-5t5-12z m-143 142v-35q0-7-5-13t-13-5h-35q-7 0-13 5t-5 13v35q0 8 5 13t13 5h35q8 0 13-5t5-13z m429-285v-36q0-7-5-13t-13-5h-36q-7 0-12 5t-6 13v36q0 7 6 12t12 6h36q7 0 13-6t5-12z m-143 143v-36q0-7-5-13t-13-5h-36q-7 0-12 5t-5 13v36q0 7 5 12t12 5h36q7 0 13-5t5-12z m-143 142v-35q0-7-5-13t-13-5h-35q-8 0-13 5t-5 13v35q0 8 5 13t13 5h35q8 0 13-5t5-13z m-143 143v-35q0-8-5-13t-13-5h-35q-7 0-13 5t-5 13v35q0 8 5 13t13 5h35q8 0 13-5t5-13z m429-285v-36q0-7-5-13t-13-5h-36q-7 0-12 5t-6 13v36q0 7 6 12t12 5h36q7 0 13-5t5-12z m-143 142v-35q0-7-5-13t-13-5h-36q-7 0-12 5t-5 13v35q0 8 5 13t12 5h36q7 0 13-5t5-13z m-143 143v-35q0-8-5-13t-13-5h-35q-8 0-13 5t-5 13v35q0 8 5 13t13 5h35q8 0 13-5t5-13z m286-143v-35q0-7-5-13t-13-5h-36q-7 0-12 5t-6 13v35q0 8 6 13t12 5h36q7 0 13-5t5-13z m-143 143v-35q0-8-5-13t-13-5h-36q-7 0-12 5t-5 13v35q0 8 5 13t12 5h36q7 0 13-5t5-13z m143 0v-35q0-8-5-13t-13-5h-36q-7 0-12 5t-6 13v35q0 8 6 13t12 5h36q7 0 13-5t5-13z m-143-768h214v858h-643v-858h215v125q0 8 5 13t13 5h178q7 0 13-5t5-13v-125z m286 893v-928q0-15-11-25t-25-11h-714q-15 0-25 11t-11 25v928q0 15 11 25t25 11h714q15 0 25-11t11-25z" horiz-adv-x="785.7" />

<glyph glyph-name="-left" unicode="&#xf104;" d="M350 546q0-7-6-12l-219-220 219-219q6-6 6-13t-6-13l-28-28q-5-5-12-5t-13 5l-260 261q-6 5-6 12t6 13l260 260q5 6 13 6t12-6l28-28q6-5 6-13z" horiz-adv-x="357.1" />

<glyph glyph-name="-right" unicode="&#xf105;" d="M332 314q0-7-5-12l-261-261q-5-5-12-5t-13 5l-28 28q-6 6-6 13t6 13l219 219-219 220q-6 5-6 12t6 13l28 28q5 6 13 6t12-6l261-260q5-5 5-13z" horiz-adv-x="357.1" />

<glyph glyph-name="-up" unicode="&#xf106;" d="M600 189q0-7-6-12l-28-28q-5-6-12-6t-13 6l-220 219-219-219q-5-6-13-6t-12 6l-28 28q-6 5-6 12t6 13l260 260q5 6 12 6t13-6l260-260q6-5 6-13z" horiz-adv-x="642.9" />

<glyph glyph-name="-down" unicode="&#xf107;" d="M600 439q0-7-6-12l-260-261q-5-5-13-5t-12 5l-260 261q-6 5-6 12t6 13l28 28q5 6 12 6t13-6l219-219 220 219q5 6 13 6t12-6l28-28q6-5 6-13z" horiz-adv-x="642.9" />

<glyph glyph-name="-instagram" unicode="&#xf16d;" d="M571 350q0 59-41 101t-101 42-101-42-42-101 42-101 101-42 101 42 41 101z m77 0q0-91-64-156t-155-64-156 64-64 156 64 156 156 64 155-64 64-156z m61 229q0-21-15-36t-37-15-36 15-15 36 15 36 36 15 37-15 15-36z m-280 123q-4 0-43 0t-59 0-54-2-57-5-40-11q-28-11-49-32t-33-49q-6-16-10-40t-6-58-1-53 0-59 0-43 0-43 0-59 1-53 6-58 10-40q12-28 33-49t49-32q16-6 40-11t57-5 54-2 59 0 43 0 42 0 59 0 54 2 58 5 39 11q28 11 50 32t32 49q6 16 10 40t6 58 1 53 0 59 0 43 0 43 0 59-1 53-6 58-10 40q-11 28-32 49t-50 32q-16 6-39 11t-58 5-54 2-59 0-42 0z m428-352q0-128-3-177-5-116-69-180t-179-69q-50-3-177-3t-177 3q-116 6-180 69t-69 180q-3 49-3 177t3 177q5 116 69 180t180 69q49 3 177 3t177-3q116-6 179-69t69-180q3-49 3-177z" horiz-adv-x="857.1" />

<glyph glyph-name="-slideshare" unicode="&#xf1e7;" d="M487 437q0-46-35-79t-85-34-85 34-36 79q0 47 36 80t85 33 85-33 35-80z m280 0q0-46-35-79t-85-34q-50 0-85 34t-36 79q0 47 36 80t85 33q50 0 85-33t35-80z m126-100v372q0 48-18 69t-62 20h-620q-47 0-63-19t-17-70v-376q24-13 50-22t45-16 45-10 40-6 39-2 32-1 32 2 25 1q38 0 53-15 3-4 5-5 15-14 34-29 4 51 66 49 3 0 21-1t24-1 25-1 30 1 30 2 34 5 35 7 37 11 38 15 40 20z m91 2q-68-83-208-140 47-159-13-260-36-63-102-82-58-18-101 8-48 28-46 92l-1 182v0q-4 1-13 3t-13 3l-1-188q2-64-46-92-44-26-102-8-66 20-102 83-58 101-12 259-140 57-208 140-14 21-2 36t33-1q2-1 7-4t6-4v387q0 40 26 69t64 28h701q37 0 64-28t26-69v-387l12 8q21 15 33 1t-2-36z" horiz-adv-x="1000" />
</font>
</defs>
</svg>
