<?xml version="1.0" encoding="utf-8"?><svg xmlns="http://www.w3.org/2000/svg" xmlns:xlink="http://www.w3.org/1999/xlink"><symbol id="asana" viewBox="0 0 100 65.4" xmlns="http://www.w3.org/2000/svg"><style>.ast0{fill:#f5333f}.ast1{fill:url(#aXMLID_29_)}</style><g id="aXMLID_13_"><path id="aXMLID_18_" class="ast0" d="M9.5 62.1c-3.3 0-6-2.7-6-6.1 0-3.3 2.6-6.1 6-6.1 3.3 0 6 2.7 6 6.1 0 3.4-2.7 6.1-6 6.1zm6 .8c0 .5.9 2.1 2.1 2.1h.7c.3 0 .5-.2.5-.5V47.9c0-.3-.2-.5-.5-.5H16c-.3 0-.5.2-.5.5v1.4c-1.4-1.8-3.7-2.5-6-2.5-5.2 0-9.3 4.2-9.3 9.3 0 5.2 4.2 9.3 9.3 9.3 2.3 0 4.8-.9 6-2.5zm9-2.4c1.6 1.1 3.3 1.6 4.9 1.6 1.6 0 3.2-.8 3.2-2.2 0-1.9-3.5-2.2-5.7-2.9-2.2-.7-4.1-2.3-4.1-4.8 0-3.9 3.4-5.4 6.7-5.4 2 0 4.1.7 5.5 1.6.5.4.2.8.2.8L33.8 51c-.2.2-.5.4-.8.2-.9-.6-1.8-1.1-3.6-1.1-2.2 0-3.2.9-3.2 2 0 1.3 1.5 1.8 3.3 2.2 3.1.9 6.5 1.9 6.5 5.7 0 3.4-3.2 5.5-6.7 5.5-2.6 0-4.9-.7-6.8-2.1-.4-.4-.1-.8-.1-.8l1.3-1.8c.3-.5.7-.4.8-.3zm29.2 2.4c0 .5.9 2.1 2.1 2.1h.7c.3 0 .5-.2.5-.5V47.9c0-.3-.2-.5-.5-.5h-2.3c-.3 0-.5.2-.5.5v1.4c-1.4-1.8-3.7-2.5-6-2.5-5.2 0-9.3 4.2-9.3 9.3 0 5.2 4.2 9.3 9.3 9.3 2.3 0 4.8-.9 6-2.5zm-6-.8c-3.3 0-6-2.7-6-6.1 0-3.3 2.6-6.1 6-6.1 3.3 0 6 2.7 6 6.1 0 3.4-2.7 6.1-6 6.1zm30.4 1.4v-8.6c0-4.9-3.1-8.1-7.9-8.1-2.3 0-4.2 1.4-4.9 2.5 0-1.2-.9-1.9-2.1-1.9h-.7c-.3 0-.5.2-.5.5v16.6c0 .3.2.5.5.5h2.6l.1-.1c.1-.1.1-.2.1-.3v-9.8c0-2.6 2.1-4.7 4.7-4.7s4.7 2.1 4.7 4.7V64.6c0 .3.2.5.5.5h2.5l.1-.1c0-.1.1-.2.1-.3l.2-1.2zm18.3-.6c0 .5.9 2.1 2.1 2.1h.7c.3 0 .5-.2.5-.5V47.9c0-.3-.2-.5-.5-.5h-2.3c-.3 0-.5.2-.5.5v1.4c-1.4-1.8-3.7-2.5-6-2.5-5.2 0-9.3 4.2-9.3 9.3 0 5.2 4.2 9.3 9.3 9.3 2.3 0 4.8-.9 6-2.5zm-6-.8c-3.3 0-6-2.7-6-6.1 0-3.3 2.6-6.1 6-6.1 3.3 0 6 2.7 6 6.1 0 3.4-2.7 6.1-6 6.1z"/><radialGradient id="aXMLID_29_" cx="155.069" cy=".19" r=".258" gradientTransform="matrix(96.78 0 0 89.4543 -14957.467 1.998)" gradientUnits="userSpaceOnUse"><stop offset="0" stop-color="#f49ab2"/><stop offset=".6" stop-color="#ef3360"/><stop offset=".999" stop-color="#f5333f"/></radialGradient><path id="aXMLID_14_" class="ast1" d="M60.8 18.4c-4.5 0-8.2 3.7-8.2 8.2s3.7 8.2 8.2 8.2 8.2-3.7 8.2-8.2c0-4.5-3.7-8.2-8.2-8.2zm-21.3 0c-4.5 0-8.2 3.7-8.2 8.2s3.7 8.2 8.2 8.2 8.2-3.7 8.2-8.2c0-4.5-3.7-8.2-8.2-8.2zM58.3 8.2c0 4.5-3.7 8.2-8.2 8.2S42 12.7 42 8.2 45.6 0 50.2 0s8.1 3.7 8.1 8.2z"/></g></symbol><symbol viewBox="0 0 256 232" preserveAspectRatio="xMidYMid" id="css" xmlns="http://www.w3.org/2000/svg"><path d="M100.902 231.618l116.456-38.653L256 0H37.867L29.57 43.056h174.812l-5.443 27.49H23.862L15.3 113.602h174.823l-9.602 49.284-70.547 23.076-60.955-23.076 4.16-21.528H10.123L0 192.965l100.902 38.653" fill="#f5333f"/></symbol><symbol viewBox="0 0 256 361" preserveAspectRatio="xMidYMid" id="css-3" xmlns="http://www.w3.org/2000/svg"><path d="M127.844 360.088L23.662 331.166.445 70.766h255.11l-23.241 260.36-104.47 28.962z" fill="#264DE4"/><path d="M212.417 314.547l19.86-222.49H128V337.95l84.417-23.403z" fill="#2965F1"/><path d="M53.669 188.636l2.862 31.937H128v-31.937H53.669zM47.917 123.995l2.903 31.937H128v-31.937H47.917zM128 271.58l-.14.037-35.568-9.604-2.274-25.471h-32.06l4.474 50.146 65.421 18.16.147-.04V271.58z" fill="#EBEBEB"/><path d="M60.484 0h38.68v16.176H76.66v16.176h22.506v16.175H60.484V0zM106.901 0h38.681v14.066h-22.505v2.813h22.505v32.352h-38.68V34.46h22.505v-2.813H106.9V0zM153.319 0H192v14.066h-22.505v2.813H192v32.352h-38.681V34.46h22.505v-2.813H153.32V0z"/><path d="M202.127 188.636l5.765-64.641H127.89v31.937h45.002l-2.906 32.704H127.89v31.937h39.327l-3.708 41.42-35.62 9.614v33.226l65.473-18.145.48-5.396 7.506-84.08.779-8.576z" fill="#FFF"/></symbol><symbol id="discovery-workshop" viewBox="0 0 266 291" xmlns="http://www.w3.org/2000/svg"><style>.dst0{fill:#c22034}</style><path class="dst0" d="M133 97.9c-19.4 0-35.2 15.8-35.2 35.2 0 14 8.3 26.6 21.1 32.2l5.1 2.2v24.9h18v-24.9l5.1-2.2c12.8-5.6 21.1-18.3 21.1-32.2 0-19.4-15.8-35.2-35.2-35.2z"/><path class="dst0" d="M226.1 138.2c-.8-50.6-42.3-91.5-93.1-91.5-51.3 0-93.1 41.8-93.1 93.1 0 26.9 11.4 52 31.4 69.7v81.6h110.8v-41.7H226v-46.7h24.1l-24-64.5zm-67 40.2v31.2H107v-31.2c-16.1-9.3-26.2-26.5-26.2-45.3 0-28.8 23.5-52.3 52.3-52.3s52.3 23.5 52.3 52.3c-.1 18.8-10.2 36-26.3 45.3zM124.5-.4h17.1v30h-17.1z"/><path transform="rotate(-67.505 180.918 24.08)" class="dst0" d="M165.9 15.5h30v17.1h-30z"/><path transform="rotate(-22.5 85.082 24.08)" class="dst0" d="M76.6 9.1h17.1v30H76.6z"/><path transform="rotate(-45.001 221.53 51.22)" class="dst0" d="M206.5 42.7h30v17.1h-30z"/><path transform="rotate(-22.5 248.676 91.836)" class="dst0" d="M233.7 83.3h30v17.1h-30z"/><path transform="rotate(-45.001 44.469 51.218)" class="dst0" d="M35.9 36.2H53v30H35.9z"/><path transform="rotate(-67.5 17.332 91.832)" class="dst0" d="M8.8 76.8h17.1v30H8.8z"/></symbol><symbol viewBox="0 0 256 256" preserveAspectRatio="xMidYMid" id="es6" xmlns="http://www.w3.org/2000/svg"><path fill="#F26522" d="M0 0h256v256H0z"/><path d="M105.536 159.959h39.157v-10.653h-27.064v-16.507h24.953v-10.653h-24.953v-15.452h27.064V96.041h-39.157v63.918zm91.462-17.371c0-12.765-.864-15.548-18.043-19.675-11.037-2.687-11.229-2.879-11.229-10.173 0-5.566 1.44-7.294 9.598-7.294 5.566 0 11.804.768 17.083 1.92l1.344-10.173c-6.335-1.44-13.053-2.112-18.62-2.112-16.219 0-21.497 5.759-21.497 17.371 0 13.533 2.111 16.508 17.563 19.963 11.517 2.495 11.709 3.07 11.709 10.173 0 6.142-1.44 7.966-10.174 7.966-6.334 0-12.092-1.152-18.042-2.976l-2.112 9.502c4.223 2.015 12.669 3.839 19.963 3.839 18.906 0 22.457-6.239 22.457-18.331zm22.266-23.801c0-9.79 4.703-11.71 16.027-11.71 2.016 0 6.239.289 9.022.865l.768-9.79c-2.88-.671-7.486-1.151-11.037-1.151-17.467 0-26.489 5.374-26.489 22.265v23.322c0 11.037 3.263 18.33 19.77 18.33 15.068 0 19.675-7.485 19.675-17.466v-4.607c0-11.037-4.703-15.836-16.315-15.836-4.127 0-8.062.576-11.421 1.728v-5.95zm9.597 14.3c4.223 0 6.43 1.44 6.43 6.046v4.703c0 4.894-1.92 7.006-7.965 7.006-6.047 0-8.062-1.728-8.062-7.006v-8.734c2.687-1.152 6.142-2.015 9.597-2.015z" fill="#FFF"/></symbol><symbol id="gitlab" viewBox="14 -14 128 116.6" xmlns="http://www.w3.org/2000/svg"><style>.fst0{fill:#fc6d26}.fst1{fill:#f5333f}.fst2{fill:#ef3360}.fst3{fill:#f46483}</style><path class="fst0" d="M140.6 52.2l-7-21.6-13.9-42.9c-.7-2.2-3.8-2.2-4.6 0l-13.9 42.9H54.9l-14-42.9c-.7-2.2-3.8-2.2-4.6 0L22.4 30.6l-7 21.6c-.6 2 .1 4.1 1.7 5.4L78 101.8l60.9-44.2c1.7-1.3 2.4-3.4 1.7-5.4"/><path class="fst1" d="M78 101.8l23.1-71.2H54.9L78 101.8z"/><path class="fst2" d="M78 101.8L54.9 30.6H22.4L78 101.8z"/><path class="fst3" d="M22.4 30.6l-7 21.6c-.6 2 .1 4.1 1.7 5.4L78 101.8 22.4 30.6z"/><path class="fst1" d="M22.4 30.6h32.4L40.9-12.3c-.7-2.2-3.8-2.2-4.6 0L22.4 30.6z"/><path class="fst2" d="M78 101.8l23.1-71.2h32.4L78 101.8z"/><path class="fst3" d="M133.6 30.6l7 21.6c.6 2-.1 4.1-1.7 5.4L78 101.8l55.6-71.2z"/><path class="fst1" d="M133.6 30.6h-32.4l13.9-42.9c.7-2.2 3.8-2.2 4.6 0l13.9 42.9z"/></symbol><symbol viewBox="0 0 256 566" preserveAspectRatio="xMidYMid" id="gulp" xmlns="http://www.w3.org/2000/svg"><path d="M197.28 548.749l5.427-90.43 14.985-25.58s-34.106 13.952-91.205 13.952c-57.1 0-90.689-13.694-90.689-13.694l16.794 27.904 5.941 87.848c0 9.418 31.059 17.052 69.374 17.052 38.313 0 69.373-7.634 69.373-17.052M180.161 126.454l11.391-45.025 63.081-66.376L238.007.892l-66.784 70.707-13.226 53.793a886.14 886.14 0 0 0-29.873-.497c-70.336 0-127.355 8.016-127.355 17.902 0 9.887 57.019 17.902 127.355 17.902 70.335 0 127.353-8.015 127.353-17.902 0-7.28-30.924-13.546-75.316-16.343" fill="#f5333f"/><path d="M173.535 151.669s-2.467.553-9.724.584c-7.259.03-12.413-.047-14.466-1.917-.552-.502-.854-1.499-.851-2.174.006-1.285.918-2.042 2.08-2.516l1.099 1.724c-.478.165-.751.36-.752.568-.004.976 7.422 1.644 13.102 1.572 5.681-.07 12.545-.538 12.551-1.5 0-.291-.519-.565-1.422-.781l1.094-1.712c1.472.457 2.757 1.34 2.754 2.868-.014 2.598-3.32 2.993-5.465 3.284" fill="#FFF"/><path d="M254.509 15.184c1.586-1.832-.821-6.518-5.376-10.465C244.576.774 239.596-.94 238.007.892c-1.587 1.832.821 6.518 5.378 10.463 4.555 3.946 9.537 5.662 11.124 3.829" fill="#D34A47"/><path d="M194.246 327.865c-1.495-14.384 31.462-35.216 23.004-35.883-18.208 1.041-27.27 21.338-36.431 42.596-3.357 7.791-14.844 41.013-22.378 36.923-7.532-4.088 9.765-31.407 14.613-47.631-5.594 4.102-26.109 20.041-31.396 5.114-8.5 7.219-26.663 11.13-24.614-7.833-4.522 8.01-14.671 19.193-26.853 14.546-15.998-6.101 9.27-57.062 15.553-54.491 6.284 2.57-1.268 14.179-3.246 18.687-4.35 9.921-9.375 22.393-6.018 24.946 5.751 4.374 21.401-16.547 21.749-17.007 2.927-3.867 11.266-29.166 17.987-26.261 6.721 2.905-16.764 36.308-7.983 42.937 1.771 1.338 9.017-.825 13.425-5.594 2.852-3.085 1.871-9.918 11.378-32.59 9.507-22.671 17.98-50.905 24.5-48.754 6.52 2.15 1.146 16.641-1.193 22.043-10.976 25.354-29.956 67.241-21.005 64.07 8.951-3.17 13.612-3.356 22.377-13.613 8.765-10.257 8.361-27.152 14.203-26.793 5.844.36 4.863 5.777 3.446 9.902 5.75-6.58 27.256-20.438 32.448-6.713 6.15 16.249-30.769 39.72-21.564 38.523 8.975-1.167 23.515-10.376 29.723-18.749l17.088-153.626s-17.195 14.23-126.589 14.23c-109.395 0-124.811-13.934-124.811-13.934l14.548 140.224c7.722-21.947 26.059-66.339 54.963-64.849 13.148.678 30.7 25.995 15.665 26.853-6.364.362-7.01-12.637-14.546-14.546-5.438-1.378-13.009 3.043-17.902 7.833-9.758 9.55-30.745 47.229-27.972 66.014 3.533 23.949 33.048-8.322 38.042-17.903 3.517-6.749 5.893-26.745 13.585-24.647 7.693 2.098-.671 22.734-6.247 40.979-6.264 20.487-9.557 42.098-17.408 39.612-7.852-2.484 4.938-28.932 4.475-33.566-7.38 6.809-20.976 24.047-38.37 15.515l9.035 87.078s24.013 18.973 96.35 18.973c72.337 0 97.239-18.677 97.239-18.677l11.219-100.857c-9.179 8.938-38.229 24.81-40.089 6.919" fill="#f5333f"/></symbol><symbol viewBox="0 0 256 361" preserveAspectRatio="xMidYMid" id="html-5" xmlns="http://www.w3.org/2000/svg"><path d="M255.555 70.766l-23.241 260.36-104.47 28.962-104.182-28.922L.445 70.766h255.11z" fill="#E44D26"/><path d="M128 337.95l84.417-23.403 19.86-222.49H128V337.95z" fill="#F16529"/><path d="M82.82 155.932H128v-31.937H47.917l.764 8.568 7.85 88.01H128v-31.937H85.739l-2.919-32.704zM90.018 236.542h-32.06l4.474 50.146 65.421 18.16.147-.04V271.58l-.14.037-35.568-9.604-2.274-25.471z" fill="#EBEBEB"/><path d="M24.18 0h16.23v16.035h14.847V0h16.231v48.558h-16.23v-16.26H40.411v16.26h-16.23V0zM92.83 16.103H78.544V0h44.814v16.103h-14.295v32.455h-16.23V16.103h-.001zM130.47 0h16.923l10.41 17.062L168.203 0h16.93v48.558h-16.164V24.49l-11.166 17.265h-.28L146.35 24.49v24.068h-15.88V0zM193.21 0h16.235v32.508h22.824v16.05h-39.06V0z"/><path d="M127.89 220.573h39.327l-3.708 41.42-35.62 9.614v33.226l65.473-18.145.48-5.396 7.506-84.08.779-8.576H127.89v31.937zM127.89 155.854v.078h77.143l.64-7.178 1.456-16.191.763-8.568H127.89v31.86z" fill="#FFF"/></symbol><symbol id="invision" viewBox="78 -78 256 256" xmlns="http://www.w3.org/2000/svg"><style>.ist0{fill:#f5333f}.ist1{fill:#fff}</style><path class="ist0" d="M310.8-78H101.2C88.4-78 78-67.6 78-54.8v209.6c0 12.8 10.4 23.2 23.2 23.2h209.6c12.8 0 23.2-10.4 23.2-23.2V-54.8c0-12.8-10.4-23.2-23.2-23.2"/><path class="ist1" d="M163.6 2.5c8.5 0 15.6-6.7 15.6-15.4s-7.1-15.4-15.6-15.4S148-21.6 148-12.9c-.1 8.8 7 15.4 15.6 15.4M131.1 85.1c-.9 3.9-1.4 8.1-1.4 11.6 0 13.6 7.4 22.6 23 22.6 13 0 23.5-7.7 31.1-20.1l-4.6 18.6H205l14.7-59c3.7-14.9 10.8-22.7 21.6-22.7 8.5 0 13.8 5.3 13.8 14 0 2.5-.2 5.3-1.2 8.3l-7.6 27.1c-1.2 3.9-1.6 7.8-1.6 11.5 0 12.9 7.6 22.3 23.5 22.3 13.6 0 24.4-8.7 30.4-29.7l-10.1-3.9c-5.1 14-9.4 16.6-12.9 16.6s-5.3-2.3-5.3-6.9c0-2.1.5-4.4 1.2-7.1l7.4-26.4c1.8-6.2 2.5-11.7 2.5-16.8 0-19.8-12-30.1-26.4-30.1-13.6 0-27.4 12.2-34.3 25.1l5.1-23.1h-39.3L181 37.4h18.4l-11.3 45.4c-8.9 19.8-25.2 20.1-27.3 19.6-3.4-.8-5.5-2-5.5-6.4 0-2.5.5-6.2 1.6-10.5l17.2-68.4h-43.7l-5.5 20.4h18.2l-12 47.6"/></symbol><symbol preserveAspectRatio="xMidYMid" viewBox="0 0 256 256" id="javascript" xmlns="http://www.w3.org/2000/svg"><path d="M0 0h256v256H0V0z" fill="#f5333f"/><path d="M67.312 213.932l19.59-11.856c3.78 6.701 7.218 12.371 15.465 12.371 7.905 0 12.89-3.092 12.89-15.12v-81.798h24.057v82.138c0 24.917-14.606 36.259-35.916 36.259-19.245 0-30.416-9.967-36.087-21.996M152.381 211.354l19.588-11.341c5.157 8.421 11.859 14.607 23.715 14.607 9.969 0 16.325-4.984 16.325-11.858 0-8.248-6.53-11.17-17.528-15.98l-6.013-2.58c-17.357-7.387-28.87-16.667-28.87-36.257 0-18.044 13.747-31.792 35.228-31.792 15.294 0 26.292 5.328 34.196 19.247L210.29 147.43c-4.125-7.389-8.591-10.31-15.465-10.31-7.046 0-11.514 4.468-11.514 10.31 0 7.217 4.468 10.14 14.778 14.608l6.014 2.577c20.45 8.765 31.963 17.7 31.963 37.804 0 21.654-17.012 33.51-39.867 33.51-22.339 0-36.774-10.654-43.819-24.574" fill-opacity=".51"/></symbol><symbol id="psd" viewBox="-10 19 78 63" xmlns="http://www.w3.org/2000/svg"><style>.kst0{fill:#f5333f}</style><path class="kst0" d="M56 53.7c-5.4-1.9-7.1-3-7.1-5.1 0-2.3 1.9-3.7 5.2-3.7 3.8 0 7.6 1.5 9.6 2.6l2.4-9.6c-2.7-1.4-7.3-2.6-12.5-2.6-11 0-18 6.3-18 14.6-.1 5.3 3.4 10.4 12.6 13.4 5.1 1.8 6.5 2.8 6.5 5.1s-1.7 3.8-5.9 3.8c-4.1 0-9.3-1.8-11.9-3.4l-2.5 10C37.8 80.7 43 82 48.8 82 61.5 82 68 75.9 68 67.5c-.1-6.5-3.6-10.9-12-13.8zM27.3 23.9C23.2 20.6 17.2 19 8.6 19c-8.4 0-14.4.6-18.6 1.3v60.8H3.7v-22c1.3.2 2.9.2 4.7.2 8.2 0 15.1-2 19.8-6.5 3.7-3.5 5.6-8.6 5.6-14.6S31.2 27 27.3 23.9zm-19 24.7c-2 0-3.4-.1-4.6-.3V30.1c1-.3 2.9-.6 5.7-.6 6.9 0 10.8 3.4 10.8 9 0 6.4-4.6 10.1-11.9 10.1z" id="kForma_1"/></symbol><symbol viewBox="0 0 256 228" preserveAspectRatio="xMidYMid" id="react" xmlns="http://www.w3.org/2000/svg"><path d="M210.483 73.824a171.49 171.49 0 0 0-8.24-2.597c.465-1.9.893-3.777 1.273-5.621 6.238-30.281 2.16-54.676-11.769-62.708-13.355-7.7-35.196.329-57.254 19.526a171.23 171.23 0 0 0-6.375 5.848 155.866 155.866 0 0 0-4.241-3.917C100.759 3.829 77.587-4.822 63.673 3.233 50.33 10.957 46.379 33.89 51.995 62.588a170.974 170.974 0 0 0 1.892 8.48c-3.28.932-6.445 1.924-9.474 2.98C17.309 83.498 0 98.307 0 113.668c0 15.865 18.582 31.778 46.812 41.427a145.52 145.52 0 0 0 6.921 2.165 167.467 167.467 0 0 0-2.01 9.138c-5.354 28.2-1.173 50.591 12.134 58.266 13.744 7.926 36.812-.22 59.273-19.855a145.567 145.567 0 0 0 5.342-4.923 168.064 168.064 0 0 0 6.92 6.314c21.758 18.722 43.246 26.282 56.54 18.586 13.731-7.949 18.194-32.003 12.4-61.268a145.016 145.016 0 0 0-1.535-6.842c1.62-.48 3.21-.974 4.76-1.488 29.348-9.723 48.443-25.443 48.443-41.52 0-15.417-17.868-30.326-45.517-39.844zm-6.365 70.984c-1.4.463-2.836.91-4.3 1.345-3.24-10.257-7.612-21.163-12.963-32.432 5.106-11 9.31-21.767 12.459-31.957 2.619.758 5.16 1.557 7.61 2.4 23.69 8.156 38.14 20.213 38.14 29.504 0 9.896-15.606 22.743-40.946 31.14zm-10.514 20.834c2.562 12.94 2.927 24.64 1.23 33.787-1.524 8.219-4.59 13.698-8.382 15.893-8.067 4.67-25.32-1.4-43.927-17.412a156.726 156.726 0 0 1-6.437-5.87c7.214-7.889 14.423-17.06 21.459-27.246 12.376-1.098 24.068-2.894 34.671-5.345.522 2.107.986 4.173 1.386 6.193zM87.276 214.515c-7.882 2.783-14.16 2.863-17.955.675-8.075-4.657-11.432-22.636-6.853-46.752a156.923 156.923 0 0 1 1.869-8.499c10.486 2.32 22.093 3.988 34.498 4.994 7.084 9.967 14.501 19.128 21.976 27.15a134.668 134.668 0 0 1-4.877 4.492c-9.933 8.682-19.886 14.842-28.658 17.94zM50.35 144.747c-12.483-4.267-22.792-9.812-29.858-15.863-6.35-5.437-9.555-10.836-9.555-15.216 0-9.322 13.897-21.212 37.076-29.293 2.813-.98 5.757-1.905 8.812-2.773 3.204 10.42 7.406 21.315 12.477 32.332-5.137 11.18-9.399 22.249-12.634 32.792a134.718 134.718 0 0 1-6.318-1.979zm12.378-84.26c-4.811-24.587-1.616-43.134 6.425-47.789 8.564-4.958 27.502 2.111 47.463 19.835a144.318 144.318 0 0 1 3.841 3.545c-7.438 7.987-14.787 17.08-21.808 26.988-12.04 1.116-23.565 2.908-34.161 5.309a160.342 160.342 0 0 1-1.76-7.887zm110.427 27.268a347.8 347.8 0 0 0-7.785-12.803c8.168 1.033 15.994 2.404 23.343 4.08-2.206 7.072-4.956 14.465-8.193 22.045a381.151 381.151 0 0 0-7.365-13.322zm-45.032-43.861c5.044 5.465 10.096 11.566 15.065 18.186a322.04 322.04 0 0 0-30.257-.006c4.974-6.559 10.069-12.652 15.192-18.18zM82.802 87.83a323.167 323.167 0 0 0-7.227 13.238c-3.184-7.553-5.909-14.98-8.134-22.152 7.304-1.634 15.093-2.97 23.209-3.984a321.524 321.524 0 0 0-7.848 12.897zm8.081 65.352c-8.385-.936-16.291-2.203-23.593-3.793 2.26-7.3 5.045-14.885 8.298-22.6a321.187 321.187 0 0 0 7.257 13.246c2.594 4.48 5.28 8.868 8.038 13.147zm37.542 31.03c-5.184-5.592-10.354-11.779-15.403-18.433 4.902.192 9.899.29 14.978.29 5.218 0 10.376-.117 15.453-.343-4.985 6.774-10.018 12.97-15.028 18.486zm52.198-57.817c3.422 7.8 6.306 15.345 8.596 22.52-7.422 1.694-15.436 3.058-23.88 4.071a382.417 382.417 0 0 0 7.859-13.026 347.403 347.403 0 0 0 7.425-13.565zm-16.898 8.101a358.557 358.557 0 0 1-12.281 19.815 329.4 329.4 0 0 1-23.444.823c-7.967 0-15.716-.248-23.178-.732a310.202 310.202 0 0 1-12.513-19.846h.001a307.41 307.41 0 0 1-10.923-20.627 310.278 310.278 0 0 1 10.89-20.637l-.001.001a307.318 307.318 0 0 1 12.413-19.761c7.613-.576 15.42-.876 23.31-.876H128c7.926 0 15.743.303 23.354.883a329.357 329.357 0 0 1 12.335 19.695 358.489 358.489 0 0 1 11.036 20.54 329.472 329.472 0 0 1-11 20.722zm22.56-122.124c8.572 4.944 11.906 24.881 6.52 51.026-.344 1.668-.73 3.367-1.15 5.09-10.622-2.452-22.155-4.275-34.23-5.408-7.034-10.017-14.323-19.124-21.64-27.008a160.789 160.789 0 0 1 5.888-5.4c18.9-16.447 36.564-22.941 44.612-18.3zM128 90.808c12.625 0 22.86 10.235 22.86 22.86s-10.235 22.86-22.86 22.86-22.86-10.235-22.86-22.86 10.235-22.86 22.86-22.86z" fill="#f5333f"/></symbol><symbol id="react-code-review" viewBox="0 0 405 388" xmlns="http://www.w3.org/2000/svg"><style>.mst0{fill:#c22034}</style><path class="mst0" d="M124 219.5H23.4c-1 0-1.8-.8-1.8-1.8V70.1h211.6v35.2h.2c7.4 0 14.6.8 21.6 2.2V13.3c0-7.6-6.2-13.7-13.7-13.7H13.6C6-.4-.1 5.8-.1 13.3v214.4c0 7.6 6.2 13.7 13.7 13.7h113.8c-1.9-7-3-14.3-3.4-21.9zm90.1-198.8c6.3 0 11.4 5.1 11.4 11.4 0 6.3-5.1 11.4-11.4 11.4-6.3 0-11.4-5.1-11.4-11.4.1-6.3 5.2-11.4 11.4-11.4zm-38.5 0c6.3 0 11.4 5.1 11.4 11.4 0 6.3-5.1 11.4-11.4 11.4-6.3 0-11.4-5.1-11.4-11.4.1-6.3 5.2-11.4 11.4-11.4zM34.7 26.1h45.8c3.2 0 5.9 2.6 5.9 5.9 0 3.2-2.6 5.9-5.9 5.9H34.7c-3.2 0-5.9-2.6-5.9-5.9 0-3.2 2.6-5.9 5.9-5.9z"/><path class="mst0" d="M397.7 345.9l-64.5-65.5c-.3-.3-.7-.6-1.1-.9 12.9-19.3 20.6-42.5 20.8-67.4.5-67.9-54.1-123.4-122-123.9s-123.4 54.1-123.9 122 54.1 123.4 122 123.9c25 .2 48.2-7.1 67.7-19.7.3.4.6.8.9 1.1l64.5 65.5c9.7 9.8 25.5 10 35.3.3 9.9-9.8 10-25.6.3-35.4zm-168.4-54.4c-44.4-.3-80.1-36.6-79.7-80.9.3-44.4 36.6-80.1 80.9-79.7 44.4.3 80.1 36.6 79.7 80.9-.2 44.3-36.5 80-80.9 79.7z" id="mSearch"/><path class="mst0" d="M234.1 124.2v93.1c0 1.5-1.2 2.7-2.7 2.7h-93.5v33.6h108.5c11.5 0 20.9-9.4 20.9-20.9V124.2h-33.2z"/><path class="mst0" d="M217 167.5c0 3.1-2.5 5.7-5.7 5.7h-82.7c-3.1 0-5.7-2.5-5.7-5.7v-4.3c0-3.1 2.5-5.7 5.7-5.7h82.7c3.1 0 5.7 2.5 5.7 5.7v4.3zm0 31.4c0 3.1-2.5 5.7-5.7 5.7h-81.7c-3.1 0-5.7-2.5-5.7-5.7v-4.3c0-3.1 2.5-5.7 5.7-5.7h81.7c3.1 0 5.7 2.5 5.7 5.7v4.3z"/></symbol><symbol id="react-training" viewBox="0 0 273 250" xmlns="http://www.w3.org/2000/svg"><style>.nst0{fill:#c22034}</style><path class="nst0" d="M101.5 0C77 0 56.6 18.1 53.1 41.7c-16.9 3.5-29.7 18.5-29.7 36.5v4.7C9.9 86.5 0 98.7 0 113.3v23.4c0 14.6 9.9 26.8 23.4 30.4v4.7c0 18 12.8 33 29.7 36.5C56.6 231.9 77 250 101.5 250H127V0h-25.5zm9.5 234h-9.5c-15.5 0-28.5-10.7-32-25.1h20.3v-16H60.6v.2c-11.7 0-21.2-9.5-21.2-21.2v-3.7h35V125h-16v27.1h-27c-8.5 0-15.4-6.9-15.4-15.4v-23.4c0-8.5 6.9-15.4 15.4-15.4h8V78.2c0-11.7 9.5-21.2 21.2-21.2h29.2V41H69.6c3.5-14.4 16.5-25 31.9-25h9.5v218zM249.6 82.9v-4.7c0-18-12.8-33-29.7-36.5C216.4 18.1 196 0 171.5 0H146v250h25.5c24.5 0 44.8-18.1 48.3-41.7 16.9-3.5 29.7-18.5 29.7-36.5v-4.7c13.4-3.6 23.4-15.8 23.4-30.4v-23.4c.1-14.6-9.8-26.8-23.3-30.4zm7.4 53.8c0 8.5-6.9 15.4-15.4 15.4h-8v19.7c0 11.7-9.5 21.2-21.2 21.2v-.2h-29.2v16h20.3c-3.5 14.5-16.5 25.2-32 25.2H162V16h9.5c15.4 0 28.3 10.6 31.9 24.9h-20.2v16h29.2c11.7 0 21.2 9.5 21.2 21.2v4.1h-35v43.1h16V98.4h30v-.2c7.1 1.4 12.4 7.6 12.4 15.1v23.4z"/></symbol><symbol id="sketch" viewBox="0 0 100 90.5" xmlns="http://www.w3.org/2000/svg"><style>.ost0{fill:#fdb300}.ost1{fill:#f5333f}.ost2{fill:#ef3360}.ost3{fill:#f46483}.ost4{fill:#f49ab2}</style><g id="oXMLID_11_"><path id="oXMLID_9_" class="ost0" d="M50 0L21.8 3 0 32.3l50 58.2 50-58.2L78.2 3z"/><path id="oXMLID_8_" class="ost1" d="M0 32.3l50 58.2-29.7-58.2z"/><path id="oXMLID_7_" class="ost1" d="M79.7 32.3L50 90.5l50-58.2z"/><path id="oXMLID_6_" class="ost2" d="M20.3 32.3L50 90.5l29.7-58.2z"/><path id="oXMLID_5_" class="ost3" d="M21.8 3l-1.5 29.3L50 0z"/><path id="oXMLID_4_" class="ost3" d="M79.7 32.3L78.2 3 50 0z"/><path id="oXMLID_3_" class="ost2" d="M79.7 32.3H100L78.2 3z"/><path id="oXMLID_2_" class="ost2" d="M0 32.3h20.3L21.8 3z"/><path id="oXMLID_1_" class="ost4" d="M50 0L20.3 32.3h59.4z"/></g></symbol><symbol id="slack" viewBox="0 0 100 100" xmlns="http://www.w3.org/2000/svg"><style>.pst0{fill:#f49ab2}.pst1{fill:#ef3360}.pst2{fill:#f5333f}.pst3{fill:#a0222b}.pst4{fill:#bb242a}.pst5{fill:#f46483}</style><g id="pXMLID_10_"><path id="pXMLID_8_" class="pst0" d="M64.7 6.6C63.2 2 58.2-.5 53.6 1c-4.6 1.4-7.2 6.4-5.7 11l22.7 70c1.6 4.3 6.2 6.7 10.7 5.5 4.7-1.3 7.5-6.3 6-10.9 0-.3-22.6-70-22.6-70"/><path id="pXMLID_7_" class="pst1" d="M29.4 18c-1.5-4.6-6.5-7.1-11.1-5.6s-7.1 6.5-5.6 11.1l22.7 70c1.6 4.3 6.2 6.7 10.7 5.5 4.7-1.3 7.5-6.3 6-10.9 0-.3-22.7-70.1-22.7-70.1"/><path id="pXMLID_6_" class="pst2" d="M93.3 64.5c4.6-1.5 7.1-6.5 5.6-11.1s-6.5-7.1-11.1-5.6l-70 22.7c-4.3 1.6-6.7 6.2-5.5 10.7 1.3 4.7 6.3 7.5 10.9 6 .3 0 70.1-22.7 70.1-22.7"/><path id="pXMLID_5_" class="pst3" d="M32.5 84.2c4.6-1.5 10.4-3.4 16.7-5.4-1.5-4.6-3.4-10.4-5.4-16.7L27 67.5l5.5 16.7"/><path id="pXMLID_4_" class="pst4" d="M67.7 72.8c6.3-2.1 12.2-4 16.7-5.4-1.5-4.6-3.4-10.5-5.4-16.8L62.3 56l5.4 16.8"/><path id="pXMLID_3_" class="pst5" d="M81.8 29.3c4.6-1.5 7.1-6.5 5.6-11.1-1.4-4.6-6.4-7.2-11-5.7l-70 22.7C2.1 36.8-.3 41.5 1 46c1.3 4.7 6.3 7.5 10.9 6 .1-.1 69.9-22.7 69.9-22.7"/><path id="pXMLID_2_" class="pst4" d="M21 49c4.6-1.5 10.4-3.4 16.7-5.4-2.1-6.3-4-12.2-5.4-16.7l-16.7 5.4L21 49"/><path id="pXMLID_1_" class="pst2" d="M56.2 37.6c6.3-2.1 12.2-4 16.7-5.4-2.1-6.3-4-12.2-5.4-16.7l-16.7 5.4 5.4 16.7"/></g></symbol><symbol viewBox="0 0 255 241" id="window" xmlns="http://www.w3.org/2000/svg"><path d="M241.3 0H13.7C6.1 0 0 6.1 0 13.7v213.7c0 7.5 6.1 13.7 13.7 13.7h227.6c7.6 0 13.7-6.1 13.7-13.7V13.7C255 6.1 248.9 0 241.3 0zm-27.1 21c6.3 0 11.4 5.1 11.4 11.3s-5.1 11.3-11.4 11.3c-6.3 0-11.4-5.1-11.4-11.3 0-6.3 5.1-11.3 11.4-11.3zm-38.5 0c6.3 0 11.4 5.1 11.4 11.3s-5.1 11.3-11.4 11.3c-6.3 0-11.4-5.1-11.4-11.3 0-6.3 5.1-11.3 11.4-11.3zM34.8 26.4h45.8c3.2 0 5.9 2.6 5.9 5.9 0 3.2-2.6 5.9-5.9 5.9H34.8c-3.2 0-5.9-2.6-5.9-5.9 0-3.3 2.6-5.9 5.9-5.9zm198.4 190.9c0 1-.8 1.8-1.8 1.8H23.6c-1 0-1.8-.8-1.8-1.8V70.2h211.5v147.1h-.1z" fill="#c22034"/></symbol><symbol id="woocommerce" viewBox="78 -26 256 153" xmlns="http://www.w3.org/2000/svg"><style>.rst0{fill:#f5333f}.rst1{fill:#fff}</style><path class="rst0" d="M101.8-26h208.4C323.3-26 334-15.3 334-2.1v79.5c0 13.2-10.7 23.9-23.9 23.9h-74.7l10.3 25.1-45.1-25.1h-98.7C88.7 101.3 78 90.6 78 77.4V-2.1C77.9-15.2 88.6-26 101.8-26z"/><path class="rst1" d="M92.6-4.3c1.5-2 3.6-3 6.6-3.2 5.3-.4 8.3 2.1 9.1 7.5 3.2 21.7 6.8 40.2 10.5 55.3l22.8-43.4c2.1-4 4.7-6 7.8-6.2 4.6-.3 7.4 2.6 8.5 8.7 2.6 13.8 5.9 25.6 9.9 35.6 2.7-26.4 7.3-45.5 13.7-57.2 1.6-2.9 3.9-4.4 6.9-4.6 2.4-.2 4.6.5 6.6 2.1s3 3.5 3.2 5.9c.1 1.9-.2 3.4-1 5-4.1 7.5-7.4 20.1-10.1 37.6-2.6 17-3.5 30.2-2.9 39.6.2 2.6-.2 4.9-1.2 6.9-1.2 2.3-3.1 3.5-5.5 3.7-2.7.2-5.5-1-8.2-3.9-9.7-9.9-17.4-24.7-23-44.3-6.8 13.3-11.8 23.3-15 30-6.1 11.8-11.3 17.8-15.7 18.1-2.8.2-5.2-2.2-7.3-7.2-5.3-13.6-11-40-17.2-79-.6-2.7 0-5.1 1.5-7zm223.6 16.4C312.5 5.5 307 1.6 299.6 0c-2-.4-3.9-.6-5.6-.6-10 0-18.1 5.2-24.5 15.6-5.4 8.8-8.1 18.6-8.1 29.3 0 8 1.7 14.9 5 20.6 3.7 6.6 9.3 10.5 16.7 12.1 2 .4 3.9.6 5.6.6 10.1 0 18.2-5.2 24.5-15.6 5.4-8.9 8.1-18.7 8.1-29.5 0-8-1.8-14.8-5.1-20.4zm-13.1 28.8c-1.5 6.9-4.1 12-7.9 15.4-3 2.7-5.8 3.9-8.4 3.3-2.5-.5-4.6-2.7-6.1-6.8-1.2-3.2-1.9-6.5-1.9-9.5 0-2.6.2-5.2.7-7.6.9-4.3 2.7-8.4 5.5-12.4 3.4-5.1 7.1-7.2 10.8-6.5 2.5.5 4.6 2.7 6.1 6.8 1.2 3.2 1.9 6.5 1.9 9.5 0 2.8-.2 5.4-.7 7.8zm-52-28.8c-3.7-6.6-9.4-10.5-16.7-12.1-2-.4-3.9-.6-5.6-.6-10 0-18.1 5.2-24.5 15.6-5.4 8.8-8.1 18.6-8.1 29.3 0 8 1.7 14.9 5 20.6 3.7 6.6 9.3 10.5 16.7 12.1 2 .4 3.9.6 5.6.6 10.1 0 18.2-5.2 24.5-15.6 5.4-8.9 8.1-18.7 8.1-29.5 0-8-1.7-14.8-5-20.4zm-13.2 28.8c-1.5 6.9-4.1 12-7.9 15.4-3 2.7-5.8 3.9-8.4 3.3-2.5-.5-4.6-2.7-6.1-6.8-1.2-3.2-1.9-6.5-1.9-9.5 0-2.6.2-5.2.7-7.6.9-4.3 2.7-8.4 5.5-12.4 3.4-5.1 7.1-7.2 10.8-6.5 2.5.5 4.6 2.7 6.1 6.8 1.2 3.2 1.9 6.5 1.9 9.5.1 2.8-.2 5.4-.7 7.8z"/></symbol><symbol id="wordpress" viewBox="-8 9 83 83" xmlns="http://www.w3.org/2000/svg"><style>.sst0{fill:#f5333f}</style><path class="sst0" d="M-8 50.5c0 16.4 9.5 30.6 23.4 37.4L-4.4 33.6C-6.7 38.8-8 44.5-8 50.5zm42.2 3.6L21.8 90.3c3.7 1.1 7.7 1.7 11.7 1.7 4.8 0 9.5-.8 13.8-2.4L47 89 34.2 54.1zm27.3-5.7c0-5.1-1.8-8.7-3.4-11.4-2.1-3.5-4.1-6.4-4.1-9.8 0-3.8 2.9-7.4 7-7.4h.5C54.1 13.1 44.3 9 33.5 9 19 9 6.2 16.4-1.2 27.7c1 0 8.4-.3 8.4-.3l16 48.5 9.1-27.2-7.4-21.5h13.7l15.6 48.4 4.1-13.8c2.2-5.4 3.2-9.8 3.2-13.4zm8.4-17.8c.2 1.3.3 2.7.3 4.3 0 4.2-.8 8.9-3.2 14.9L54.4 86.4C66.7 79.2 75 65.8 75 50.5c0-7.2-1.8-14-5.1-19.9z" id="sForma_1_copy"/></symbol></svg>